<svg xmlns="http://www.w3.org/2000/svg" xmlns:xlink="http://www.w3.org/1999/xlink" width="800" zoomAndPan="magnify" viewBox="0 0 600 599.999999" height="800" preserveAspectRatio="xMidYMid meet" version="1.0"><path fill="#000000" d="M 71.429688 0 C 32.207031 0 0 32.207031 0 71.429688 L 0 528.570312 C 0 567.792969 32.207031 600 71.429688 600 L 528.570312 600 C 567.792969 600 600 567.792969 600 528.570312 L 600 71.429688 C 600 32.207031 567.792969 0 528.570312 0 Z M 71.429688 28.570312 L 528.570312 28.570312 C 552.207031 28.570312 571.429688 47.792969 571.429688 71.429688 L 571.429688 528.570312 C 571.429688 552.207031 552.207031 571.429688 528.570312 571.429688 L 71.429688 571.429688 C 47.792969 571.429688 28.570312 552.207031 28.570312 528.570312 L 28.570312 71.429688 C 28.570312 47.792969 47.792969 28.570312 71.429688 28.570312 Z M 181.527344 161.328125 L 161.328125 181.527344 L 279.800781 300 L 161.328125 418.472656 L 181.527344 438.671875 L 300 320.199219 L 418.472656 438.671875 L 438.671875 418.472656 L 320.199219 300 L 438.671875 181.527344 L 418.472656 161.328125 L 300 279.800781 Z M 181.527344 161.328125 " fill-opacity="1" fill-rule="nonzero"/></svg>