<svg xmlns="http://www.w3.org/2000/svg" xmlns:xlink="http://www.w3.org/1999/xlink" width="800" zoomAndPan="magnify" viewBox="0 0 600 599.999999" height="800" preserveAspectRatio="xMidYMid meet" version="1.0"><path fill="#eee8a9" d="M 280.710938 580.097656 L 280.710938 550.246094 C 259.511719 548.730469 237.878906 545.808594 215.8125 541.484375 C 193.742188 537.15625 173.949219 529.367188 156.425781 518.117188 C 139.117188 506.652344 130.464844 491.398438 130.464844 472.363281 C 130.464844 458.085938 135.007812 445.210938 144.09375 433.746094 C 153.398438 422.28125 164.753906 416.546875 178.167969 416.546875 C 184.007812 416.546875 194.5 419.792969 209.644531 426.28125 C 224.789062 432.773438 237.121094 437.640625 246.640625 440.886719 C 256.375 444.128906 267.730469 445.753906 280.710938 445.753906 L 280.710938 341.585938 C 253.019531 333.148438 229.765625 324.386719 210.941406 315.300781 C 192.121094 305.996094 176.871094 295.828125 165.1875 284.796875 C 153.507812 273.546875 145.066406 261.433594 139.875 248.453125 C 134.898438 235.472656 132.410156 221.085938 132.410156 205.292969 C 132.410156 183.222656 136.304688 163.105469 144.09375 144.933594 C 151.882812 126.542969 162.484375 110.75 175.898438 97.554688 C 189.527344 84.140625 205.425781 73.433594 223.597656 65.429688 C 241.769531 57.425781 260.808594 52.664062 280.710938 51.148438 L 280.710938 19.671875 C 280.710938 6.476562 287.3125 -0.121094 300.507812 -0.121094 C 313.921875 -0.121094 320.628906 6.476562 320.628906 19.671875 L 320.628906 51.148438 C 336.851562 51.582031 354.050781 54.070312 372.222656 58.613281 C 390.613281 62.941406 406.1875 70.296875 418.953125 80.679688 C 431.714844 91.066406 438.097656 104.910156 438.097656 122.21875 C 438.097656 130.65625 436.152344 138.875 432.257812 146.882812 C 428.582031 154.667969 423.28125 160.945312 416.355469 165.703125 C 409.648438 170.464844 402.078125 172.84375 393.640625 172.84375 C 388.449219 172.84375 382.175781 171.21875 374.820312 167.976562 C 367.679688 164.730469 361.191406 161.59375 355.351562 158.5625 C 349.507812 155.320312 343.777344 152.722656 338.152344 150.777344 C 332.527344 148.613281 326.683594 147.53125 320.628906 147.53125 L 320.628906 242.613281 C 365.84375 254.945312 402.078125 272.359375 429.339844 294.859375 C 456.8125 317.355469 470.550781 349.699219 470.550781 391.886719 C 470.550781 416.984375 465.898438 439.375 456.597656 459.058594 C 447.511719 478.53125 435.503906 494.863281 420.578125 508.0625 C 405.863281 521.042969 389.75 530.992188 372.226562 537.914062 C 354.699219 544.839844 337.503906 548.949219 320.628906 550.246094 L 320.628906 580.101562 C 320.628906 593.296875 313.921875 599.898438 300.507812 599.898438 C 287.3125 599.898438 280.714844 593.296875 280.714844 580.101562 Z M 280.710938 230.597656 L 280.710938 147.523438 C 269.894531 149.902344 261.027344 154.988281 254.101562 162.777344 C 247.398438 170.347656 244.042969 180.082031 244.042969 191.980469 C 244.042969 201.933594 247.398438 210.15625 254.101562 216.644531 C 261.027344 223.136719 269.894531 227.785156 280.710938 230.597656 Z M 320.628906 351.960938 L 320.628906 445.746094 C 331.226562 445.746094 340.207031 441.09375 347.5625 431.792969 C 355.132812 422.488281 358.921875 411.886719 358.921875 399.988281 C 358.921875 386.359375 355.675781 375.976562 349.183594 368.835938 C 342.910156 361.480469 333.390625 355.855469 320.628906 351.960938 Z M 320.628906 351.960938 " fill-opacity="1" fill-rule="nonzero"/></svg>