<svg xmlns="http://www.w3.org/2000/svg" xmlns:xlink="http://www.w3.org/1999/xlink" width="800" zoomAndPan="magnify" viewBox="0 0 600 599.999999" height="800" preserveAspectRatio="xMidYMid meet" version="1.0"><defs><clipPath id="06d10937bb"><path d="M 37.359375 13.351562 L 562.359375 13.351562 L 562.359375 586.351562 L 37.359375 586.351562 Z M 37.359375 13.351562 " clip-rule="nonzero"/></clipPath></defs><g clip-path="url(#06d10937bb)"><path fill="#ffffff" d="M 77.949219 13.351562 C 55.75 13.351562 37.578125 31.523438 37.578125 53.726562 L 37.578125 473.601562 C 37.578125 495.804688 55.75 513.972656 77.949219 513.972656 L 290.632812 513.972656 C 288.53125 508.726562 286.675781 503.316406 285.222656 497.824219 L 77.949219 497.824219 C 64.476562 497.824219 53.726562 487.074219 53.726562 473.601562 L 53.726562 53.726562 C 53.726562 40.253906 64.476562 29.5 77.949219 29.5 L 400.933594 29.5 C 414.402344 29.5 425.15625 40.253906 425.15625 53.726562 L 425.15625 304.195312 C 427.820312 304.113281 430.566406 304.035156 433.230469 304.035156 C 435.894531 304.035156 438.640625 304.113281 441.304688 304.195312 L 441.304688 53.726562 C 441.304688 31.523438 423.132812 13.351562 400.933594 13.351562 Z M 86.023438 61.800781 L 86.023438 142.546875 L 392.855469 142.546875 L 392.855469 61.800781 Z M 102.171875 77.949219 L 376.707031 77.949219 L 376.707031 126.394531 L 102.171875 126.394531 Z M 77.949219 182.917969 C 77.417969 182.917969 76.894531 182.96875 76.375 183.074219 C 75.855469 183.175781 75.351562 183.328125 74.859375 183.53125 C 74.371094 183.734375 73.90625 183.984375 73.464844 184.277344 C 73.023438 184.574219 72.613281 184.90625 72.238281 185.28125 C 71.867188 185.65625 71.53125 186.066406 71.234375 186.507812 C 70.941406 186.949219 70.691406 187.414062 70.488281 187.902344 C 70.285156 188.390625 70.132812 188.898438 70.03125 189.417969 C 69.925781 189.9375 69.875 190.460938 69.875 190.992188 C 69.875 191.523438 69.925781 192.046875 70.03125 192.566406 C 70.132812 193.085938 70.285156 193.59375 70.488281 194.082031 C 70.691406 194.574219 70.941406 195.039062 71.234375 195.480469 C 71.53125 195.917969 71.867188 196.328125 72.238281 196.703125 C 72.613281 197.078125 73.023438 197.410156 73.464844 197.707031 C 73.90625 198 74.371094 198.25 74.859375 198.453125 C 75.347656 198.65625 75.855469 198.808594 76.375 198.910156 C 76.894531 199.015625 77.417969 199.066406 77.949219 199.066406 C 78.480469 199.066406 79.003906 199.015625 79.523438 198.910156 C 80.046875 198.808594 80.550781 198.65625 81.039062 198.453125 C 81.53125 198.25 81.996094 198 82.4375 197.707031 C 82.875 197.410156 83.285156 197.078125 83.660156 196.703125 C 84.035156 196.328125 84.367188 195.917969 84.664062 195.480469 C 84.957031 195.039062 85.207031 194.574219 85.410156 194.082031 C 85.613281 193.59375 85.765625 193.085938 85.871094 192.566406 C 85.972656 192.046875 86.023438 191.523438 86.023438 190.992188 C 86.023438 190.460938 85.972656 189.9375 85.871094 189.417969 C 85.765625 188.898438 85.613281 188.390625 85.410156 187.902344 C 85.207031 187.414062 84.957031 186.949219 84.664062 186.507812 C 84.367188 186.066406 84.035156 185.65625 83.660156 185.28125 C 83.285156 184.90625 82.875 184.574219 82.4375 184.277344 C 81.996094 183.984375 81.53125 183.734375 81.039062 183.53125 C 80.550781 183.328125 80.046875 183.175781 79.523438 183.074219 C 79.003906 182.96875 78.480469 182.917969 77.949219 182.917969 Z M 110.246094 182.917969 C 109.71875 182.917969 109.191406 182.96875 108.671875 183.074219 C 108.152344 183.175781 107.648438 183.328125 107.15625 183.53125 C 106.667969 183.734375 106.203125 183.984375 105.761719 184.277344 C 105.320312 184.574219 104.914062 184.90625 104.539062 185.28125 C 104.164062 185.65625 103.828125 186.066406 103.535156 186.507812 C 103.238281 186.949219 102.992188 187.414062 102.789062 187.902344 C 102.585938 188.390625 102.433594 188.898438 102.328125 189.417969 C 102.226562 189.9375 102.171875 190.460938 102.171875 190.992188 C 102.171875 191.523438 102.226562 192.046875 102.328125 192.566406 C 102.433594 193.085938 102.585938 193.59375 102.789062 194.082031 C 102.992188 194.574219 103.238281 195.039062 103.535156 195.480469 C 103.828125 195.917969 104.164062 196.328125 104.539062 196.703125 C 104.914062 197.078125 105.320312 197.410156 105.761719 197.707031 C 106.203125 198 106.667969 198.25 107.15625 198.453125 C 107.648438 198.65625 108.152344 198.808594 108.671875 198.910156 C 109.191406 199.015625 109.71875 199.066406 110.246094 199.066406 C 110.777344 199.066406 111.304688 199.015625 111.824219 198.910156 C 112.34375 198.808594 112.847656 198.65625 113.339844 198.453125 C 113.828125 198.25 114.292969 198 114.734375 197.707031 C 115.175781 197.410156 115.582031 197.078125 115.957031 196.703125 C 116.332031 196.328125 116.667969 195.917969 116.960938 195.480469 C 117.257812 195.039062 117.503906 194.574219 117.707031 194.082031 C 117.910156 193.59375 118.0625 193.085938 118.167969 192.566406 C 118.269531 192.046875 118.324219 191.523438 118.324219 190.992188 C 118.324219 190.460938 118.269531 189.9375 118.167969 189.417969 C 118.0625 188.898438 117.910156 188.390625 117.707031 187.902344 C 117.503906 187.414062 117.257812 186.949219 116.960938 186.507812 C 116.667969 186.066406 116.332031 185.65625 115.957031 185.28125 C 115.582031 184.90625 115.175781 184.574219 114.734375 184.277344 C 114.292969 183.984375 113.828125 183.734375 113.339844 183.53125 C 112.847656 183.328125 112.34375 183.175781 111.824219 183.074219 C 111.304688 182.96875 110.777344 182.917969 110.246094 182.917969 Z M 142.546875 182.917969 C 142.015625 182.917969 141.492188 182.96875 140.972656 183.074219 C 140.449219 183.175781 139.945312 183.328125 139.457031 183.53125 C 138.964844 183.734375 138.5 183.984375 138.058594 184.277344 C 137.621094 184.574219 137.210938 184.90625 136.835938 185.28125 C 136.460938 185.65625 136.128906 186.066406 135.832031 186.507812 C 135.539062 186.949219 135.289062 187.414062 135.085938 187.902344 C 134.882812 188.390625 134.730469 188.898438 134.625 189.417969 C 134.523438 189.9375 134.472656 190.460938 134.472656 190.992188 C 134.472656 191.523438 134.523438 192.046875 134.625 192.566406 C 134.730469 193.085938 134.882812 193.59375 135.085938 194.082031 C 135.289062 194.574219 135.539062 195.039062 135.832031 195.480469 C 136.128906 195.917969 136.460938 196.328125 136.835938 196.703125 C 137.210938 197.078125 137.621094 197.410156 138.058594 197.707031 C 138.5 198 138.964844 198.25 139.457031 198.453125 C 139.945312 198.65625 140.449219 198.808594 140.972656 198.910156 C 141.492188 199.015625 142.015625 199.066406 142.546875 199.066406 C 143.078125 199.066406 143.601562 199.015625 144.121094 198.910156 C 144.640625 198.808594 145.144531 198.65625 145.636719 198.453125 C 146.125 198.25 146.589844 198 147.03125 197.707031 C 147.472656 197.410156 147.878906 197.078125 148.253906 196.703125 C 148.628906 196.328125 148.964844 195.917969 149.261719 195.480469 C 149.554688 195.039062 149.804688 194.574219 150.007812 194.082031 C 150.207031 193.59375 150.363281 193.085938 150.464844 192.566406 C 150.570312 192.046875 150.621094 191.523438 150.621094 190.992188 C 150.621094 190.460938 150.570312 189.9375 150.464844 189.417969 C 150.363281 188.898438 150.207031 188.390625 150.007812 187.902344 C 149.804688 187.414062 149.554688 186.949219 149.261719 186.507812 C 148.964844 186.066406 148.628906 185.65625 148.253906 185.28125 C 147.878906 184.90625 147.472656 184.574219 147.03125 184.277344 C 146.589844 183.984375 146.125 183.734375 145.636719 183.53125 C 145.144531 183.328125 144.640625 183.175781 144.121094 183.074219 C 143.601562 182.96875 143.078125 182.917969 142.546875 182.917969 Z M 174.84375 182.917969 C 174.3125 182.917969 173.789062 182.96875 173.269531 183.074219 C 172.75 183.175781 172.246094 183.328125 171.753906 183.53125 C 171.265625 183.734375 170.800781 183.984375 170.359375 184.277344 C 169.917969 184.574219 169.507812 184.90625 169.136719 185.28125 C 168.761719 185.65625 168.425781 186.066406 168.128906 186.507812 C 167.835938 186.949219 167.585938 187.414062 167.382812 187.902344 C 167.179688 188.390625 167.027344 188.898438 166.925781 189.417969 C 166.820312 189.9375 166.769531 190.460938 166.769531 190.992188 C 166.769531 191.523438 166.820312 192.046875 166.925781 192.566406 C 167.027344 193.085938 167.179688 193.59375 167.382812 194.082031 C 167.585938 194.574219 167.835938 195.039062 168.128906 195.480469 C 168.425781 195.917969 168.761719 196.328125 169.136719 196.703125 C 169.507812 197.078125 169.917969 197.410156 170.359375 197.707031 C 170.800781 198 171.265625 198.25 171.753906 198.453125 C 172.246094 198.65625 172.75 198.808594 173.269531 198.910156 C 173.789062 199.015625 174.3125 199.066406 174.84375 199.066406 C 175.375 199.066406 175.898438 199.015625 176.417969 198.910156 C 176.941406 198.808594 177.445312 198.65625 177.933594 198.453125 C 178.425781 198.25 178.890625 198 179.332031 197.707031 C 179.769531 197.410156 180.179688 197.078125 180.554688 196.703125 C 180.929688 196.328125 181.261719 195.917969 181.558594 195.480469 C 181.851562 195.039062 182.101562 194.574219 182.304688 194.082031 C 182.507812 193.59375 182.660156 193.085938 182.765625 192.566406 C 182.867188 192.046875 182.917969 191.523438 182.917969 190.992188 C 182.917969 190.460938 182.867188 189.9375 182.765625 189.417969 C 182.660156 188.898438 182.507812 188.390625 182.304688 187.902344 C 182.101562 187.414062 181.851562 186.949219 181.558594 186.507812 C 181.261719 186.066406 180.929688 185.65625 180.554688 185.28125 C 180.179688 184.90625 179.769531 184.574219 179.332031 184.277344 C 178.890625 183.984375 178.425781 183.734375 177.933594 183.53125 C 177.445312 183.328125 176.941406 183.175781 176.417969 183.074219 C 175.898438 182.96875 175.375 182.917969 174.84375 182.917969 Z M 207.140625 182.917969 C 206.613281 182.917969 206.085938 182.96875 205.566406 183.074219 C 205.046875 183.175781 204.542969 183.328125 204.050781 183.53125 C 203.5625 183.734375 203.097656 183.984375 202.65625 184.277344 C 202.214844 184.574219 201.808594 184.90625 201.433594 185.28125 C 201.058594 185.65625 200.722656 186.066406 200.429688 186.507812 C 200.132812 186.949219 199.886719 187.414062 199.683594 187.902344 C 199.480469 188.390625 199.328125 188.898438 199.222656 189.417969 C 199.121094 189.9375 199.066406 190.460938 199.066406 190.992188 C 199.066406 191.523438 199.121094 192.046875 199.222656 192.566406 C 199.328125 193.085938 199.480469 193.59375 199.683594 194.082031 C 199.886719 194.574219 200.132812 195.039062 200.429688 195.480469 C 200.722656 195.917969 201.058594 196.328125 201.433594 196.703125 C 201.808594 197.078125 202.214844 197.410156 202.65625 197.707031 C 203.097656 198 203.5625 198.25 204.050781 198.453125 C 204.542969 198.65625 205.046875 198.808594 205.566406 198.910156 C 206.085938 199.015625 206.613281 199.066406 207.140625 199.066406 C 207.671875 199.066406 208.199219 199.015625 208.71875 198.910156 C 209.238281 198.808594 209.742188 198.65625 210.234375 198.453125 C 210.722656 198.25 211.1875 198 211.628906 197.707031 C 212.070312 197.410156 212.476562 197.078125 212.851562 196.703125 C 213.226562 196.328125 213.5625 195.917969 213.855469 195.480469 C 214.152344 195.039062 214.398438 194.574219 214.601562 194.082031 C 214.804688 193.59375 214.957031 193.085938 215.0625 192.566406 C 215.164062 192.046875 215.21875 191.523438 215.21875 190.992188 C 215.21875 190.460938 215.164062 189.9375 215.0625 189.417969 C 214.957031 188.898438 214.804688 188.390625 214.601562 187.902344 C 214.398438 187.414062 214.152344 186.949219 213.855469 186.507812 C 213.5625 186.066406 213.226562 185.65625 212.851562 185.28125 C 212.476562 184.90625 212.070312 184.574219 211.628906 184.277344 C 211.1875 183.984375 210.722656 183.734375 210.234375 183.53125 C 209.742188 183.328125 209.238281 183.175781 208.71875 183.074219 C 208.199219 182.96875 207.671875 182.917969 207.140625 182.917969 Z M 239.441406 182.917969 C 238.910156 182.917969 238.386719 182.96875 237.867188 183.074219 C 237.34375 183.175781 236.839844 183.328125 236.351562 183.53125 C 235.859375 183.734375 235.394531 183.984375 234.953125 184.277344 C 234.515625 184.574219 234.105469 184.90625 233.730469 185.28125 C 233.355469 185.65625 233.023438 186.066406 232.726562 186.507812 C 232.433594 186.949219 232.183594 187.414062 231.980469 187.902344 C 231.777344 188.390625 231.625 188.898438 231.519531 189.417969 C 231.417969 189.9375 231.367188 190.460938 231.367188 190.992188 C 231.367188 191.523438 231.417969 192.046875 231.519531 192.566406 C 231.625 193.085938 231.777344 193.59375 231.980469 194.082031 C 232.183594 194.574219 232.433594 195.039062 232.726562 195.480469 C 233.023438 195.917969 233.355469 196.328125 233.730469 196.703125 C 234.105469 197.078125 234.515625 197.410156 234.953125 197.707031 C 235.394531 198 235.859375 198.25 236.351562 198.453125 C 236.839844 198.65625 237.34375 198.808594 237.867188 198.910156 C 238.386719 199.015625 238.910156 199.066406 239.441406 199.066406 C 239.972656 199.066406 240.496094 199.015625 241.015625 198.910156 C 241.535156 198.808594 242.039062 198.65625 242.53125 198.453125 C 243.019531 198.25 243.484375 198 243.925781 197.707031 C 244.367188 197.410156 244.777344 197.078125 245.148438 196.703125 C 245.523438 196.328125 245.859375 195.917969 246.15625 195.480469 C 246.449219 195.039062 246.699219 194.574219 246.902344 194.082031 C 247.105469 193.59375 247.257812 193.085938 247.359375 192.566406 C 247.464844 192.046875 247.515625 191.523438 247.515625 190.992188 C 247.515625 190.460938 247.464844 189.9375 247.359375 189.417969 C 247.257812 188.898438 247.105469 188.390625 246.902344 187.902344 C 246.699219 187.414062 246.449219 186.949219 246.15625 186.507812 C 245.859375 186.066406 245.523438 185.65625 245.148438 185.28125 C 244.777344 184.90625 244.367188 184.574219 243.925781 184.277344 C 243.484375 183.984375 243.019531 183.734375 242.53125 183.53125 C 242.039062 183.328125 241.535156 183.175781 241.015625 183.074219 C 240.496094 182.96875 239.972656 182.917969 239.441406 182.917969 Z M 271.738281 182.917969 C 271.207031 182.917969 270.683594 182.96875 270.164062 183.074219 C 269.644531 183.175781 269.140625 183.328125 268.648438 183.53125 C 268.160156 183.734375 267.695312 183.984375 267.253906 184.277344 C 266.8125 184.574219 266.402344 184.90625 266.03125 185.28125 C 265.65625 185.65625 265.320312 186.066406 265.023438 186.507812 C 264.730469 186.949219 264.480469 187.414062 264.277344 187.902344 C 264.078125 188.390625 263.921875 188.898438 263.820312 189.417969 C 263.714844 189.9375 263.664062 190.460938 263.664062 190.992188 C 263.664062 191.523438 263.714844 192.046875 263.820312 192.566406 C 263.921875 193.085938 264.074219 193.59375 264.277344 194.082031 C 264.480469 194.574219 264.730469 195.039062 265.023438 195.480469 C 265.320312 195.917969 265.65625 196.328125 266.03125 196.703125 C 266.402344 197.078125 266.8125 197.410156 267.253906 197.707031 C 267.695312 198 268.160156 198.25 268.648438 198.453125 C 269.140625 198.65625 269.644531 198.808594 270.164062 198.910156 C 270.683594 199.015625 271.207031 199.066406 271.738281 199.066406 C 272.269531 199.066406 272.792969 199.015625 273.3125 198.910156 C 273.835938 198.808594 274.339844 198.65625 274.828125 198.453125 C 275.320312 198.25 275.785156 198 276.226562 197.707031 C 276.664062 197.410156 277.074219 197.078125 277.449219 196.703125 C 277.824219 196.328125 278.15625 195.917969 278.453125 195.480469 C 278.746094 195.039062 278.996094 194.574219 279.199219 194.082031 C 279.402344 193.59375 279.554688 193.085938 279.660156 192.566406 C 279.761719 192.046875 279.8125 191.523438 279.8125 190.992188 C 279.8125 190.460938 279.761719 189.9375 279.660156 189.417969 C 279.554688 188.898438 279.402344 188.390625 279.199219 187.902344 C 278.996094 187.414062 278.746094 186.949219 278.453125 186.507812 C 278.15625 186.066406 277.824219 185.65625 277.449219 185.28125 C 277.074219 184.90625 276.664062 184.574219 276.226562 184.277344 C 275.785156 183.984375 275.320312 183.734375 274.828125 183.53125 C 274.339844 183.328125 273.835938 183.175781 273.3125 183.074219 C 272.792969 182.96875 272.269531 182.917969 271.738281 182.917969 Z M 304.039062 182.917969 C 303.507812 182.917969 302.980469 182.96875 302.460938 183.074219 C 301.941406 183.175781 301.4375 183.328125 300.945312 183.53125 C 300.457031 183.734375 299.992188 183.984375 299.550781 184.277344 C 299.109375 184.574219 298.703125 184.90625 298.328125 185.28125 C 297.953125 185.65625 297.617188 186.066406 297.324219 186.507812 C 297.027344 186.949219 296.78125 187.414062 296.578125 187.902344 C 296.375 188.390625 296.222656 188.898438 296.117188 189.417969 C 296.015625 189.9375 295.960938 190.460938 295.960938 190.992188 C 295.960938 191.523438 296.015625 192.046875 296.117188 192.566406 C 296.222656 193.085938 296.375 193.59375 296.578125 194.082031 C 296.78125 194.574219 297.027344 195.039062 297.324219 195.480469 C 297.617188 195.917969 297.953125 196.328125 298.328125 196.703125 C 298.703125 197.078125 299.109375 197.410156 299.550781 197.707031 C 299.992188 198 300.457031 198.25 300.945312 198.453125 C 301.4375 198.65625 301.941406 198.808594 302.460938 198.910156 C 302.980469 199.015625 303.507812 199.066406 304.039062 199.066406 C 304.566406 199.066406 305.09375 199.015625 305.613281 198.910156 C 306.132812 198.808594 306.636719 198.65625 307.128906 198.453125 C 307.617188 198.25 308.082031 198 308.523438 197.707031 C 308.964844 197.410156 309.371094 197.078125 309.746094 196.703125 C 310.121094 196.328125 310.457031 195.917969 310.75 195.480469 C 311.046875 195.039062 311.292969 194.574219 311.496094 194.082031 C 311.699219 193.59375 311.851562 193.085938 311.957031 192.566406 C 312.058594 192.046875 312.113281 191.523438 312.113281 190.992188 C 312.113281 190.460938 312.058594 189.9375 311.957031 189.417969 C 311.851562 188.898438 311.699219 188.390625 311.496094 187.902344 C 311.292969 187.414062 311.046875 186.949219 310.75 186.507812 C 310.457031 186.066406 310.121094 185.65625 309.746094 185.28125 C 309.371094 184.90625 308.964844 184.574219 308.523438 184.277344 C 308.082031 183.984375 307.617188 183.734375 307.128906 183.53125 C 306.636719 183.328125 306.132812 183.175781 305.613281 183.074219 C 305.09375 182.96875 304.566406 182.917969 304.039062 182.917969 Z M 336.335938 182.917969 C 335.804688 182.917969 335.28125 182.96875 334.761719 183.074219 C 334.238281 183.175781 333.734375 183.328125 333.246094 183.53125 C 332.753906 183.734375 332.289062 183.984375 331.847656 184.277344 C 331.410156 184.574219 331 184.90625 330.625 185.28125 C 330.25 185.65625 329.917969 186.066406 329.621094 186.507812 C 329.328125 186.949219 329.078125 187.414062 328.875 187.902344 C 328.671875 188.390625 328.519531 188.898438 328.414062 189.417969 C 328.3125 189.9375 328.261719 190.460938 328.261719 190.992188 C 328.261719 191.523438 328.3125 192.046875 328.414062 192.566406 C 328.519531 193.085938 328.671875 193.59375 328.875 194.082031 C 329.078125 194.574219 329.328125 195.039062 329.621094 195.480469 C 329.917969 195.917969 330.25 196.328125 330.625 196.703125 C 331 197.078125 331.410156 197.410156 331.847656 197.707031 C 332.289062 198 332.753906 198.25 333.246094 198.453125 C 333.734375 198.65625 334.238281 198.808594 334.761719 198.910156 C 335.28125 199.015625 335.804688 199.066406 336.335938 199.066406 C 336.867188 199.066406 337.390625 199.015625 337.910156 198.910156 C 338.429688 198.808594 338.933594 198.65625 339.425781 198.453125 C 339.914062 198.25 340.378906 198 340.820312 197.707031 C 341.261719 197.410156 341.671875 197.078125 342.042969 196.703125 C 342.417969 196.328125 342.753906 195.917969 343.050781 195.480469 C 343.34375 195.039062 343.59375 194.574219 343.796875 194.082031 C 344 193.59375 344.152344 193.085938 344.253906 192.566406 C 344.359375 192.046875 344.410156 191.523438 344.410156 190.992188 C 344.410156 190.460938 344.359375 189.9375 344.253906 189.417969 C 344.152344 188.898438 344 188.390625 343.796875 187.902344 C 343.59375 187.414062 343.34375 186.949219 343.050781 186.507812 C 342.753906 186.066406 342.417969 185.65625 342.042969 185.28125 C 341.671875 184.90625 341.261719 184.574219 340.820312 184.277344 C 340.378906 183.984375 339.914062 183.734375 339.425781 183.53125 C 338.933594 183.328125 338.429688 183.175781 337.910156 183.074219 C 337.390625 182.96875 336.867188 182.917969 336.335938 182.917969 Z M 368.632812 182.917969 C 368.101562 182.917969 367.578125 182.96875 367.058594 183.074219 C 366.539062 183.175781 366.035156 183.328125 365.542969 183.53125 C 365.054688 183.734375 364.589844 183.984375 364.148438 184.277344 C 363.707031 184.574219 363.300781 184.90625 362.925781 185.28125 C 362.550781 185.65625 362.214844 186.066406 361.917969 186.507812 C 361.625 186.949219 361.375 187.414062 361.171875 187.902344 C 360.972656 188.390625 360.816406 188.898438 360.714844 189.417969 C 360.609375 189.9375 360.558594 190.460938 360.558594 190.992188 C 360.558594 191.523438 360.609375 192.046875 360.714844 192.566406 C 360.816406 193.085938 360.96875 193.59375 361.171875 194.082031 C 361.375 194.574219 361.625 195.039062 361.917969 195.480469 C 362.214844 195.917969 362.550781 196.328125 362.925781 196.703125 C 363.300781 197.078125 363.707031 197.410156 364.148438 197.707031 C 364.589844 198 365.054688 198.25 365.542969 198.453125 C 366.035156 198.65625 366.539062 198.808594 367.058594 198.910156 C 367.578125 199.015625 368.101562 199.066406 368.632812 199.066406 C 369.164062 199.066406 369.6875 199.015625 370.207031 198.910156 C 370.730469 198.808594 371.234375 198.65625 371.722656 198.453125 C 372.214844 198.25 372.679688 198 373.121094 197.707031 C 373.558594 197.410156 373.96875 197.078125 374.34375 196.703125 C 374.71875 196.328125 375.050781 195.917969 375.347656 195.480469 C 375.640625 195.039062 375.890625 194.574219 376.09375 194.082031 C 376.296875 193.59375 376.449219 193.085938 376.554688 192.566406 C 376.65625 192.046875 376.707031 191.523438 376.707031 190.992188 C 376.707031 190.460938 376.65625 189.9375 376.554688 189.417969 C 376.449219 188.898438 376.296875 188.390625 376.09375 187.902344 C 375.890625 187.414062 375.640625 186.949219 375.347656 186.507812 C 375.050781 186.066406 374.71875 185.65625 374.34375 185.28125 C 373.96875 184.90625 373.558594 184.574219 373.121094 184.277344 C 372.679688 183.984375 372.214844 183.734375 371.722656 183.53125 C 371.234375 183.328125 370.730469 183.175781 370.207031 183.074219 C 369.6875 182.96875 369.164062 182.917969 368.632812 182.917969 Z M 400.933594 182.917969 C 400.402344 182.917969 399.875 182.96875 399.355469 183.074219 C 398.835938 183.175781 398.332031 183.328125 397.839844 183.53125 C 397.351562 183.734375 396.886719 183.984375 396.445312 184.277344 C 396.003906 184.574219 395.597656 184.90625 395.222656 185.28125 C 394.847656 185.65625 394.511719 186.066406 394.21875 186.507812 C 393.921875 186.949219 393.675781 187.414062 393.472656 187.902344 C 393.269531 188.390625 393.117188 188.898438 393.011719 189.417969 C 392.910156 189.9375 392.855469 190.460938 392.855469 190.992188 C 392.855469 191.523438 392.910156 192.046875 393.011719 192.566406 C 393.117188 193.085938 393.269531 193.59375 393.472656 194.082031 C 393.675781 194.574219 393.921875 195.039062 394.21875 195.480469 C 394.511719 195.917969 394.847656 196.328125 395.222656 196.703125 C 395.597656 197.078125 396.003906 197.410156 396.445312 197.707031 C 396.886719 198 397.351562 198.25 397.839844 198.453125 C 398.332031 198.65625 398.835938 198.808594 399.355469 198.910156 C 399.875 199.015625 400.402344 199.066406 400.933594 199.066406 C 401.460938 199.066406 401.988281 199.015625 402.507812 198.910156 C 403.027344 198.808594 403.53125 198.65625 404.023438 198.453125 C 404.511719 198.25 404.976562 198 405.417969 197.707031 C 405.859375 197.410156 406.265625 197.078125 406.640625 196.703125 C 407.015625 196.328125 407.351562 195.917969 407.644531 195.480469 C 407.941406 195.039062 408.1875 194.574219 408.390625 194.082031 C 408.59375 193.59375 408.746094 193.085938 408.851562 192.566406 C 408.953125 192.046875 409.007812 191.523438 409.007812 190.992188 C 409.007812 190.460938 408.953125 189.9375 408.851562 189.417969 C 408.746094 188.898438 408.59375 188.390625 408.390625 187.902344 C 408.1875 187.414062 407.941406 186.949219 407.644531 186.507812 C 407.351562 186.066406 407.015625 185.65625 406.640625 185.28125 C 406.265625 184.90625 405.859375 184.574219 405.417969 184.277344 C 404.976562 183.984375 404.511719 183.734375 404.023438 183.53125 C 403.53125 183.328125 403.027344 183.175781 402.507812 183.074219 C 401.988281 182.96875 401.460938 182.917969 400.933594 182.917969 Z M 86.023438 239.441406 L 86.023438 304.035156 L 150.621094 304.035156 L 150.621094 239.441406 Z M 166.769531 239.441406 L 166.769531 304.035156 L 231.367188 304.035156 L 231.367188 239.441406 Z M 247.515625 239.441406 L 247.515625 304.035156 L 312.113281 304.035156 L 312.113281 239.441406 Z M 328.261719 239.441406 L 328.261719 304.035156 L 392.855469 304.035156 L 392.855469 239.441406 Z M 102.171875 255.589844 L 134.472656 255.589844 L 134.472656 287.886719 L 102.171875 287.886719 Z M 182.917969 255.589844 L 215.21875 255.589844 L 215.21875 287.886719 L 182.917969 287.886719 Z M 263.664062 255.589844 L 295.960938 255.589844 L 295.960938 287.886719 L 263.664062 287.886719 Z M 344.410156 255.589844 L 376.707031 255.589844 L 376.707031 287.886719 L 344.410156 287.886719 Z M 86.023438 320.183594 L 86.023438 384.78125 L 150.621094 384.78125 L 150.621094 320.183594 Z M 166.769531 320.183594 L 166.769531 384.78125 L 231.367188 384.78125 L 231.367188 320.183594 Z M 247.515625 320.183594 L 247.515625 384.78125 L 312.113281 384.78125 L 312.113281 320.183594 Z M 328.261719 320.183594 L 328.261719 345.703125 C 339.082031 335.449219 351.347656 326.804688 364.832031 320.183594 Z M 433.230469 328.261719 C 361.996094 328.261719 304.039062 386.21875 304.039062 457.453125 C 304.039062 528.6875 361.996094 586.644531 433.230469 586.644531 C 504.464844 586.644531 562.421875 528.6875 562.421875 457.453125 C 562.421875 386.21875 504.464844 328.261719 433.230469 328.261719 Z M 102.171875 336.335938 L 134.472656 336.335938 L 134.472656 368.632812 L 102.171875 368.632812 Z M 182.917969 336.335938 L 215.21875 336.335938 L 215.21875 368.632812 L 182.917969 368.632812 Z M 263.664062 336.335938 L 295.960938 336.335938 L 295.960938 368.632812 L 263.664062 368.632812 Z M 433.230469 344.410156 C 495.566406 344.410156 546.273438 395.117188 546.273438 457.453125 C 546.273438 519.789062 495.566406 570.496094 433.230469 570.496094 C 370.894531 570.496094 320.1875 519.789062 320.1875 457.453125 C 320.1875 395.117188 370.894531 344.410156 433.230469 344.410156 Z M 428.308594 391.40625 L 428.308594 401.957031 C 406.765625 403.789062 393.773438 415.625 393.773438 433.65625 C 393.773438 448.933594 403.332031 459.328125 420.976562 463.683594 L 428.308594 465.433594 L 428.308594 497.984375 C 417.691406 496.835938 410.734375 490.722656 410.046875 482.164062 L 391.40625 482.164062 C 391.480469 500.1875 405.53125 512.253906 428.292969 513.628906 L 428.292969 523.5 L 438.84375 523.5 L 438.84375 513.566406 C 461.839844 511.660156 475.054688 499.816406 475.054688 480.871094 C 475.0625 464.746094 465.816406 454.894531 446.414062 450.386719 L 438.84375 448.777344 L 438.84375 417.851562 C 448.007812 419.070312 454.421875 425.332031 454.644531 433.199219 L 472.910156 433.199219 C 472.527344 416.007812 459.242188 403.78125 438.84375 401.957031 L 438.84375 391.40625 Z M 86.023438 400.929688 L 86.023438 465.527344 L 150.621094 465.527344 L 150.621094 400.929688 Z M 166.769531 400.929688 L 166.769531 465.527344 L 231.367188 465.527344 L 231.367188 400.929688 Z M 247.515625 400.929688 L 247.515625 465.527344 L 279.972656 465.527344 C 279.890625 462.863281 279.8125 460.117188 279.8125 457.453125 C 279.8125 454.789062 279.890625 452.042969 279.972656 449.378906 L 263.664062 449.378906 L 263.664062 417.078125 L 285.222656 417.078125 C 286.675781 411.589844 288.53125 406.179688 290.632812 400.929688 Z M 102.171875 417.078125 L 134.472656 417.078125 L 134.472656 449.378906 L 102.171875 449.378906 Z M 182.917969 417.078125 L 215.21875 417.078125 L 215.21875 449.378906 L 182.917969 449.378906 Z M 428.308594 417.757812 L 428.308594 446.554688 C 418.070312 444.414062 412.648438 439.378906 412.648438 432.046875 C 412.648438 424.246094 419.226562 418.300781 428.308594 417.757812 Z M 438.84375 467.417969 C 450.914062 469.785156 456.414062 474.664062 456.414062 482.84375 C 456.414062 491.863281 450.003906 497.4375 438.84375 498.125 Z M 438.84375 467.417969 " fill-opacity="1" fill-rule="nonzero"/></g></svg>