<svg xmlns="http://www.w3.org/2000/svg" xmlns:xlink="http://www.w3.org/1999/xlink" width="500" zoomAndPan="magnify" viewBox="0 0 375 374.999991" height="500" preserveAspectRatio="xMidYMid meet" version="1.0"><defs><g/><clipPath id="942451b7c9"><path d="M 227 49 L 242 49 L 242 61 L 227 61 Z M 227 49 " clip-rule="nonzero"/></clipPath><clipPath id="6f22605671"><path d="M 238.597656 46.054688 L 248.144531 55.597656 L 229.582031 74.160156 L 220.035156 64.613281 Z M 238.597656 46.054688 " clip-rule="nonzero"/></clipPath><clipPath id="e19975c602"><path d="M 238.597656 46.054688 L 248.144531 55.597656 L 229.582031 74.160156 L 220.035156 64.613281 Z M 238.597656 46.054688 " clip-rule="nonzero"/></clipPath><clipPath id="73ecd0504f"><path d="M 238.597656 46.054688 L 248.144531 55.597656 L 229.582031 74.160156 L 220.035156 64.613281 Z M 238.597656 46.054688 " clip-rule="nonzero"/></clipPath><clipPath id="3bbb0d3309"><path d="M 223 58 L 230 58 L 230 63 L 223 63 Z M 223 58 " clip-rule="nonzero"/></clipPath><clipPath id="8e0c5b7a54"><path d="M 238.597656 46.054688 L 248.144531 55.597656 L 229.582031 74.160156 L 220.035156 64.613281 Z M 238.597656 46.054688 " clip-rule="nonzero"/></clipPath><clipPath id="eeac50fe8a"><path d="M 238.597656 46.054688 L 248.144531 55.597656 L 229.582031 74.160156 L 220.035156 64.613281 Z M 238.597656 46.054688 " clip-rule="nonzero"/></clipPath><clipPath id="6c347bbfe0"><path d="M 238.597656 46.054688 L 248.144531 55.597656 L 229.582031 74.160156 L 220.035156 64.613281 Z M 238.597656 46.054688 " clip-rule="nonzero"/></clipPath><clipPath id="bbd77a0794"><path d="M 231 62 L 234 62 L 234 66 L 231 66 Z M 231 62 " clip-rule="nonzero"/></clipPath><clipPath id="bf990c734e"><path d="M 238.597656 46.054688 L 248.144531 55.597656 L 229.582031 74.160156 L 220.035156 64.613281 Z M 238.597656 46.054688 " clip-rule="nonzero"/></clipPath><clipPath id="69a91eff4e"><path d="M 238.597656 46.054688 L 248.144531 55.597656 L 229.582031 74.160156 L 220.035156 64.613281 Z M 238.597656 46.054688 " clip-rule="nonzero"/></clipPath><clipPath id="6491b5b2cf"><path d="M 238.597656 46.054688 L 248.144531 55.597656 L 229.582031 74.160156 L 220.035156 64.613281 Z M 238.597656 46.054688 " clip-rule="nonzero"/></clipPath><clipPath id="797eea285f"><path d="M 232 67 L 235 67 L 235 70 L 232 70 Z M 232 67 " clip-rule="nonzero"/></clipPath><clipPath id="63bb0b13d2"><path d="M 238.597656 46.054688 L 248.144531 55.597656 L 229.582031 74.160156 L 220.035156 64.613281 Z M 238.597656 46.054688 " clip-rule="nonzero"/></clipPath><clipPath id="af93c74705"><path d="M 238.597656 46.054688 L 248.144531 55.597656 L 229.582031 74.160156 L 220.035156 64.613281 Z M 238.597656 46.054688 " clip-rule="nonzero"/></clipPath><clipPath id="db3fa880ba"><path d="M 238.597656 46.054688 L 248.144531 55.597656 L 229.582031 74.160156 L 220.035156 64.613281 Z M 238.597656 46.054688 " clip-rule="nonzero"/></clipPath><clipPath id="f2840fa6d6"><path d="M 235 63 L 237 63 L 237 66 L 235 66 Z M 235 63 " clip-rule="nonzero"/></clipPath><clipPath id="091b19c951"><path d="M 238.597656 46.054688 L 248.144531 55.597656 L 229.582031 74.160156 L 220.035156 64.613281 Z M 238.597656 46.054688 " clip-rule="nonzero"/></clipPath><clipPath id="eca6823061"><path d="M 238.597656 46.054688 L 248.144531 55.597656 L 229.582031 74.160156 L 220.035156 64.613281 Z M 238.597656 46.054688 " clip-rule="nonzero"/></clipPath><clipPath id="bf07796150"><path d="M 238.597656 46.054688 L 248.144531 55.597656 L 229.582031 74.160156 L 220.035156 64.613281 Z M 238.597656 46.054688 " clip-rule="nonzero"/></clipPath><clipPath id="fc31e368df"><path d="M 222 61 L 233 61 L 233 72 L 222 72 Z M 222 61 " clip-rule="nonzero"/></clipPath><clipPath id="8d7784b22e"><path d="M 238.597656 46.054688 L 248.144531 55.597656 L 229.582031 74.160156 L 220.035156 64.613281 Z M 238.597656 46.054688 " clip-rule="nonzero"/></clipPath><clipPath id="3e013ab46d"><path d="M 238.597656 46.054688 L 248.144531 55.597656 L 229.582031 74.160156 L 220.035156 64.613281 Z M 238.597656 46.054688 " clip-rule="nonzero"/></clipPath><clipPath id="b0ba4a83d4"><path d="M 238.597656 46.054688 L 248.144531 55.597656 L 229.582031 74.160156 L 220.035156 64.613281 Z M 238.597656 46.054688 " clip-rule="nonzero"/></clipPath><clipPath id="fd6ed669f3"><path d="M 162 37.496094 L 173.953125 37.496094 L 173.953125 50 L 162 50 Z M 162 37.496094 " clip-rule="nonzero"/></clipPath><clipPath id="5192503332"><path d="M 63.246094 59.054688 L 99 59.054688 L 99 94 L 63.246094 94 Z M 63.246094 59.054688 " clip-rule="nonzero"/></clipPath><clipPath id="17706adbfb"><path d="M 78 76 L 99.246094 76 L 99.246094 95.054688 L 78 95.054688 Z M 78 76 " clip-rule="nonzero"/></clipPath></defs><path stroke-linecap="butt" transform="matrix(0, -0.75, 0.75, 0, 110.597853, 107.561823)" fill="none" stroke-linejoin="miter" d="M -0.000903284 0.999737 L 89.509519 0.999737 " stroke="#ffffff" stroke-width="2" stroke-opacity="1" stroke-miterlimit="4"/><g clip-path="url(#942451b7c9)"><g clip-path="url(#6f22605671)"><g clip-path="url(#e19975c602)"><g clip-path="url(#73ecd0504f)"><path fill="#0071bc" d="M 239.492188 49.214844 C 233.90625 51.085938 229.699219 54.953125 227.390625 59.523438 C 227.066406 60.203125 227.941406 60.5 228.300781 59.867188 C 228.261719 59.957031 230.101562 56.46875 233.222656 54.179688 C 236.136719 51.695312 240.332031 50.410156 240.285156 50.492188 C 241.882812 50.035156 241.242188 48.722656 239.492188 49.214844 Z M 239.492188 49.214844 " fill-opacity="1" fill-rule="nonzero"/></g></g></g></g><g clip-path="url(#3bbb0d3309)"><g clip-path="url(#8e0c5b7a54)"><g clip-path="url(#eeac50fe8a)"><g clip-path="url(#6c347bbfe0)"><path fill="#0071bc" d="M 226.921875 61.679688 C 227.691406 61.894531 228.375 62.171875 228.863281 62.433594 C 229.183594 62.605469 229.40625 62.765625 229.539062 62.914062 C 229.574219 62.488281 229.625 62.058594 229.695312 61.628906 C 229.835938 60.652344 228.960938 60.734375 228.777344 60.367188 C 228.652344 60.101562 228.78125 59.871094 228.800781 59.734375 C 228.816406 59.597656 228.796875 59.425781 228.644531 59.363281 C 228.570312 59.332031 228.5 59.300781 228.425781 59.269531 C 228.332031 59.230469 228.242188 59.191406 228.148438 59.15625 C 228.054688 59.117188 227.960938 59.078125 227.867188 59.042969 C 227.792969 59.011719 227.71875 58.980469 227.644531 58.953125 C 227.492188 58.890625 227.308594 58.992188 227.191406 59.101562 C 227.074219 59.207031 226.941406 59.453125 226.617188 59.574219 C 226.160156 59.757812 225.617188 59.0625 224.816406 60.054688 C 224.476562 60.511719 224.148438 60.984375 223.839844 61.46875 C 224.644531 61.136719 226.195312 61.472656 226.921875 61.679688 Z M 226.921875 61.679688 " fill-opacity="1" fill-rule="nonzero"/></g></g></g></g><g clip-path="url(#bbd77a0794)"><g clip-path="url(#bf990c734e)"><g clip-path="url(#69a91eff4e)"><g clip-path="url(#6491b5b2cf)"><path fill="#29abe2" d="M 231.078125 65.046875 C 231.804688 64.320312 231.789062 63.121094 231.039062 62.371094 C 231.789062 63.121094 232.984375 63.136719 233.714844 62.410156 C 232.984375 63.136719 233.003906 64.335938 233.75 65.085938 C 233.003906 64.335938 231.804688 64.320312 231.078125 65.046875 Z M 231.078125 65.046875 " fill-opacity="1" fill-rule="nonzero"/></g></g></g></g><g clip-path="url(#797eea285f)"><g clip-path="url(#63bb0b13d2)"><g clip-path="url(#af93c74705)"><g clip-path="url(#db3fa880ba)"><path fill="#29abe2" d="M 234.617188 67.109375 L 234.609375 67.097656 C 234.066406 67.640625 233.179688 67.628906 232.621094 67.070312 L 232.613281 67.078125 C 233.171875 67.636719 233.183594 68.527344 232.640625 69.066406 L 232.648438 69.074219 C 233.191406 68.535156 234.082031 68.546875 234.636719 69.105469 L 234.644531 69.097656 C 234.089844 68.539062 234.078125 67.648438 234.617188 67.109375 Z M 234.617188 67.109375 " fill-opacity="1" fill-rule="nonzero"/></g></g></g></g><g clip-path="url(#f2840fa6d6)"><g clip-path="url(#091b19c951)"><g clip-path="url(#eca6823061)"><g clip-path="url(#bf07796150)"><path fill="#29abe2" d="M 236.929688 63.695312 C 236.53125 64.097656 235.875 64.085938 235.460938 63.675781 C 235.875 64.085938 235.882812 64.746094 235.484375 65.144531 C 235.882812 64.746094 236.539062 64.753906 236.953125 65.164062 C 236.539062 64.753906 236.53125 64.097656 236.929688 63.695312 Z M 236.929688 63.695312 " fill-opacity="1" fill-rule="nonzero"/></g></g></g></g><g clip-path="url(#fc31e368df)"><g clip-path="url(#8d7784b22e)"><g clip-path="url(#3e013ab46d)"><g clip-path="url(#b0ba4a83d4)"><path fill="#29abe2" d="M 229.339844 63.257812 C 229.300781 63.09375 228.570312 62.550781 226.769531 62.066406 C 224.949219 61.589844 223.90625 61.761719 223.765625 61.933594 C 223.710938 61.984375 222.402344 63.226562 222.359375 65.375 C 222.355469 65.722656 222.378906 66.09375 222.449219 66.484375 C 222.5 66.703125 222.824219 67.136719 223.175781 67.605469 C 223.421875 67.933594 223.691406 68.242188 223.976562 68.53125 C 223.636719 67.53125 223.511719 66.433594 223.777344 65.417969 C 223.617188 66.425781 223.832031 67.484375 224.253906 68.417969 C 224.367188 68.667969 224.5 68.910156 224.644531 69.140625 C 225.199219 69.597656 225.804688 69.992188 226.449219 70.308594 C 226.167969 69.804688 225.6875 68.46875 225.90625 67.480469 C 225.949219 68.414062 226.539062 69.980469 227.210938 70.640625 C 227.882812 70.898438 228.59375 71.074219 229.324219 71.164062 C 228.464844 69.671875 228.238281 67.554688 228.351562 66.765625 C 228.359375 67.5 228.789062 70.117188 230.027344 71.21875 C 230.460938 71.238281 230.898438 71.222656 231.339844 71.175781 C 231.582031 71.148438 231.820312 71.109375 232.054688 71.066406 C 228.972656 68.140625 229.140625 65.121094 229.339844 63.257812 Z M 229.339844 63.257812 " fill-opacity="1" fill-rule="nonzero"/></g></g></g></g><g clip-path="url(#fd6ed669f3)"><path fill="#29abe2" d="M 167.390625 49.890625 C 167.269531 44.871094 167.171875 44.773438 162.152344 44.652344 C 167.171875 44.535156 167.269531 44.433594 167.390625 39.417969 C 167.511719 44.433594 167.609375 44.535156 172.628906 44.652344 C 167.609375 44.773438 167.511719 44.871094 167.390625 49.890625 Z M 173.953125 40.414062 C 171.535156 40.355469 171.488281 40.308594 171.429688 37.890625 C 171.375 40.308594 171.328125 40.355469 168.910156 40.414062 C 171.328125 40.472656 171.375 40.519531 171.429688 42.9375 C 171.488281 40.519531 171.535156 40.472656 173.953125 40.414062 Z M 166.03125 39.101562 C 164.5 39.0625 164.46875 39.035156 164.433594 37.5 C 164.398438 39.035156 164.367188 39.0625 162.835938 39.101562 C 164.367188 39.136719 164.398438 39.167969 164.433594 40.699219 C 164.46875 39.167969 164.5 39.136719 166.03125 39.101562 Z M 166.03125 39.101562 " fill-opacity="1" fill-rule="nonzero"/></g><g clip-path="url(#5192503332)"><path fill="#29abe2" d="M 80.164062 74 C 80.164062 74.300781 80.40625 74.542969 80.707031 74.542969 C 81.007812 74.542969 81.25 74.300781 81.25 74 L 81.25 64.628906 L 84.730469 65.425781 L 84.730469 73.277344 C 84.730469 73.574219 84.972656 73.820312 85.273438 73.820312 C 85.574219 73.820312 85.816406 73.574219 85.816406 73.277344 L 85.816406 69.589844 L 93.390625 68.429688 L 93.390625 73.277344 C 93.390625 73.574219 93.632812 73.820312 93.933594 73.820312 C 94.234375 73.820312 94.476562 73.574219 94.476562 73.277344 L 94.476562 68.523438 L 97.003906 69.253906 L 97.003906 73.277344 C 97.003906 73.574219 97.25 73.820312 97.546875 73.820312 C 97.847656 73.820312 98.09375 73.574219 98.09375 73.277344 L 98.09375 68.847656 C 98.09375 68.605469 97.933594 68.390625 97.699219 68.324219 L 96.578125 68 L 96.578125 66.289062 C 96.578125 65.988281 96.332031 65.746094 96.035156 65.746094 C 95.734375 65.746094 95.488281 65.988281 95.488281 66.289062 L 95.488281 67.683594 L 94.128906 67.289062 C 94.070312 67.269531 94.007812 67.257812 93.949219 67.253906 C 93.898438 67.253906 93.851562 67.257812 93.808594 67.265625 L 85.816406 68.488281 L 85.816406 64.992188 C 85.816406 64.738281 85.644531 64.519531 85.394531 64.464844 L 82.804688 63.871094 L 82.804688 62.253906 C 82.804688 62 82.628906 61.78125 82.382812 61.722656 L 79.511719 61.066406 C 79.46875 61.054688 79.417969 61.046875 79.371094 61.042969 C 79.363281 61.042969 79.355469 61.042969 79.347656 61.042969 C 79.339844 61.042969 79.335938 61.042969 79.328125 61.042969 C 79.300781 61.046875 79.273438 61.046875 79.246094 61.054688 L 78.367188 61.175781 L 78.367188 59.601562 C 78.367188 59.300781 78.121094 59.058594 77.820312 59.058594 C 77.523438 59.058594 77.277344 59.300781 77.277344 59.601562 L 77.277344 61.328125 L 76.125 61.488281 L 76.125 59.945312 C 76.125 59.644531 75.882812 59.402344 75.582031 59.402344 C 75.28125 59.402344 75.039062 59.644531 75.039062 59.945312 L 75.039062 61.640625 L 72.3125 62.019531 C 72.046875 62.058594 71.84375 62.289062 71.84375 62.558594 L 71.84375 64.46875 L 69.695312 64.730469 C 69.421875 64.761719 69.214844 64.996094 69.214844 65.269531 L 69.214844 70.398438 L 63.714844 71.191406 C 63.445312 71.230469 63.246094 71.457031 63.246094 71.730469 L 63.246094 93.242188 C 63.246094 93.539062 63.492188 93.785156 63.792969 93.785156 C 64.089844 93.785156 64.335938 93.539062 64.335938 93.242188 L 64.335938 85.613281 L 67.722656 85.1875 C 68.019531 85.152344 68.230469 84.878906 68.195312 84.582031 C 68.15625 84.285156 67.886719 84.074219 67.585938 84.109375 L 64.335938 84.515625 L 64.335938 82.894531 L 67.722656 82.46875 C 68.019531 82.433594 68.230469 82.160156 68.195312 81.863281 C 68.15625 81.566406 67.886719 81.355469 67.585938 81.390625 L 64.335938 81.796875 L 64.335938 80.171875 L 67.722656 79.75 C 68.019531 79.710938 68.230469 79.441406 68.195312 79.144531 C 68.15625 78.84375 67.886719 78.632812 67.585938 78.671875 L 64.335938 79.078125 L 64.335938 77.453125 L 67.722656 77.03125 C 68.019531 76.992188 68.230469 76.71875 68.195312 76.421875 C 68.15625 76.125 67.886719 75.914062 67.585938 75.949219 L 64.335938 76.355469 L 64.335938 74.734375 L 67.722656 74.308594 C 68.019531 74.273438 68.230469 74 68.195312 73.703125 C 68.15625 73.40625 67.886719 73.195312 67.585938 73.230469 L 64.335938 73.636719 L 64.335938 72.199219 L 69.214844 71.496094 L 69.214844 89.132812 C 69.214844 89.433594 69.460938 89.675781 69.761719 89.675781 C 70.058594 89.675781 70.304688 89.433594 70.304688 89.132812 L 70.304688 65.75 L 80.164062 64.558594 Z M 81.714844 63.621094 L 80.875 63.429688 C 80.824219 63.410156 80.769531 63.402344 80.714844 63.402344 C 80.710938 63.402344 80.707031 63.402344 80.703125 63.402344 C 80.699219 63.402344 80.695312 63.402344 80.691406 63.402344 C 80.660156 63.402344 80.628906 63.40625 80.597656 63.410156 L 79.898438 63.496094 L 79.898438 62.269531 L 81.714844 62.6875 Z M 72.933594 63.03125 L 78.808594 62.210938 L 78.808594 63.625 L 72.933594 64.335938 Z M 72.933594 63.03125 " fill-opacity="1" fill-rule="nonzero"/></g><path fill="#29abe2" d="M 72.410156 67.339844 C 72.109375 67.339844 71.867188 67.582031 71.867188 67.882812 L 71.867188 87.316406 C 71.867188 87.617188 72.109375 87.859375 72.410156 87.859375 C 72.710938 87.859375 72.953125 87.617188 72.953125 87.316406 L 72.953125 67.882812 C 72.953125 67.582031 72.710938 67.339844 72.410156 67.339844 Z M 72.410156 67.339844 " fill-opacity="1" fill-rule="nonzero"/><path fill="#29abe2" d="M 75.277344 66.894531 C 74.976562 66.894531 74.734375 67.136719 74.734375 67.4375 L 74.734375 85.570312 C 74.734375 85.871094 74.976562 86.117188 75.277344 86.117188 C 75.578125 86.117188 75.820312 85.871094 75.820312 85.570312 L 75.820312 67.4375 C 75.820312 67.136719 75.578125 66.894531 75.277344 66.894531 Z M 75.277344 66.894531 " fill-opacity="1" fill-rule="nonzero"/><path fill="#29abe2" d="M 78.691406 75.917969 L 78.691406 67.289062 C 78.691406 66.988281 78.445312 66.746094 78.148438 66.746094 C 77.847656 66.746094 77.601562 66.988281 77.601562 67.289062 L 77.601562 75.917969 C 77.601562 76.21875 77.847656 76.460938 78.148438 76.460938 C 78.445312 76.460938 78.691406 76.21875 78.691406 75.917969 Z M 78.691406 75.917969 " fill-opacity="1" fill-rule="nonzero"/><g clip-path="url(#17706adbfb)"><path fill="#29abe2" d="M 99.078125 82.070312 L 96.578125 78.96875 L 96.578125 77 C 96.578125 76.703125 96.332031 76.457031 96.035156 76.457031 L 81.519531 76.457031 C 81.21875 76.457031 80.976562 76.703125 80.976562 77 L 80.976562 78.96875 L 78.476562 82.070312 C 78.398438 82.167969 78.355469 82.285156 78.355469 82.410156 L 78.355469 83.070312 C 78.355469 83.886719 78.800781 84.597656 79.460938 84.972656 L 79.460938 94.605469 C 79.460938 94.90625 79.703125 95.148438 80.003906 95.148438 L 97.546875 95.148438 C 97.847656 95.148438 98.09375 94.90625 98.09375 94.605469 L 98.09375 84.972656 C 98.753906 84.597656 99.199219 83.886719 99.199219 83.070312 L 99.199219 82.410156 C 99.199219 82.285156 99.15625 82.167969 99.078125 82.070312 Z M 92.855469 94.0625 L 89.320312 94.0625 L 89.320312 87.859375 L 92.855469 87.859375 Z M 88.234375 94.0625 L 84.695312 94.0625 L 84.695312 87.859375 L 88.234375 87.859375 Z M 93.945312 94.0625 L 93.945312 87.316406 C 93.945312 87.015625 93.699219 86.773438 93.398438 86.773438 L 84.152344 86.773438 C 83.851562 86.773438 83.609375 87.015625 83.609375 87.316406 L 83.609375 94.0625 L 80.546875 94.0625 L 80.546875 85.261719 C 81.203125 85.261719 81.789062 84.972656 82.191406 84.515625 C 82.59375 84.972656 83.179688 85.261719 83.835938 85.261719 C 84.492188 85.261719 85.082031 84.972656 85.484375 84.515625 C 85.886719 84.972656 86.472656 85.261719 87.128906 85.261719 C 87.785156 85.261719 88.375 84.972656 88.777344 84.515625 C 89.179688 84.972656 89.765625 85.261719 90.421875 85.261719 C 91.078125 85.261719 91.667969 84.972656 92.070312 84.515625 C 92.472656 84.972656 93.058594 85.261719 93.714844 85.261719 C 94.371094 85.261719 94.960938 84.972656 95.363281 84.511719 C 95.761719 84.972656 96.351562 85.261719 97.003906 85.261719 L 97.003906 94.0625 Z M 98.113281 83.070312 C 98.113281 83.679688 97.617188 84.175781 97.007812 84.175781 C 96.402344 84.175781 95.90625 83.679688 95.90625 83.070312 L 95.90625 82.410156 C 95.90625 82.109375 95.664062 81.867188 95.363281 81.867188 C 95.0625 81.867188 94.820312 82.109375 94.820312 82.410156 L 94.820312 83.070312 C 94.820312 83.679688 94.324219 84.175781 93.714844 84.175781 C 93.109375 84.175781 92.613281 83.679688 92.613281 83.070312 L 92.613281 82.410156 C 92.613281 82.109375 92.371094 81.867188 92.070312 81.867188 C 91.769531 81.867188 91.527344 82.109375 91.527344 82.410156 L 91.527344 83.070312 C 91.527344 83.679688 91.03125 84.175781 90.421875 84.175781 C 89.816406 84.175781 89.320312 83.679688 89.320312 83.070312 L 89.320312 82.410156 C 89.320312 82.109375 89.078125 81.867188 88.777344 81.867188 C 88.476562 81.867188 88.234375 82.109375 88.234375 82.410156 L 88.234375 83.070312 C 88.234375 83.679688 87.738281 84.175781 87.128906 84.175781 C 86.523438 84.175781 86.027344 83.679688 86.027344 83.070312 L 86.027344 82.410156 C 86.027344 82.109375 85.785156 81.867188 85.484375 81.867188 C 85.183594 81.867188 84.941406 82.109375 84.941406 82.410156 L 84.941406 83.070312 C 84.941406 83.679688 84.445312 84.175781 83.835938 84.175781 C 83.230469 84.175781 82.734375 83.679688 82.734375 83.070312 L 82.734375 82.410156 C 82.734375 82.109375 82.492188 81.867188 82.191406 81.867188 C 81.890625 81.867188 81.648438 82.109375 81.648438 82.410156 L 81.648438 83.070312 C 81.648438 83.679688 81.152344 84.175781 80.542969 84.175781 C 79.9375 84.175781 79.441406 83.679688 79.441406 83.070312 L 79.441406 82.601562 L 81.78125 79.703125 L 85.484375 79.703125 C 85.785156 79.703125 86.027344 79.460938 86.027344 79.160156 C 86.027344 78.859375 85.785156 78.617188 85.484375 78.617188 L 82.0625 78.617188 L 82.0625 77.546875 L 95.488281 77.546875 L 95.488281 78.617188 L 92.070312 78.617188 C 91.769531 78.617188 91.527344 78.859375 91.527344 79.160156 C 91.527344 79.460938 91.769531 79.703125 92.070312 79.703125 L 95.773438 79.703125 L 98.113281 82.601562 Z M 98.113281 83.070312 " fill-opacity="1" fill-rule="nonzero"/></g><g fill="#ffffff" fill-opacity="1"><g transform="translate(118.233988, 71.102871)"><g><path d="M 0.78125 -15.953125 C 0.78125 -17.660156 1.179688 -18.96875 1.984375 -19.875 C 2.796875 -20.78125 4.015625 -21.234375 5.640625 -21.234375 C 7.253906 -21.234375 8.46875 -20.78125 9.28125 -19.875 C 10.09375 -18.96875 10.5 -17.660156 10.5 -15.953125 L 10.5 -15.296875 L 7.375 -15.296875 L 7.375 -16.171875 C 7.375 -16.929688 7.226562 -17.460938 6.9375 -17.765625 C 6.65625 -18.078125 6.253906 -18.234375 5.734375 -18.234375 C 5.210938 -18.234375 4.804688 -18.078125 4.515625 -17.765625 C 4.222656 -17.460938 4.078125 -16.929688 4.078125 -16.171875 C 4.078125 -15.453125 4.238281 -14.816406 4.5625 -14.265625 C 4.882812 -13.710938 5.285156 -13.191406 5.765625 -12.703125 C 6.242188 -12.210938 6.753906 -11.722656 7.296875 -11.234375 C 7.847656 -10.742188 8.363281 -10.207031 8.84375 -9.625 C 9.320312 -9.050781 9.722656 -8.394531 10.046875 -7.65625 C 10.367188 -6.914062 10.53125 -6.046875 10.53125 -5.046875 C 10.53125 -3.335938 10.113281 -2.03125 9.28125 -1.125 C 8.457031 -0.21875 7.234375 0.234375 5.609375 0.234375 C 3.992188 0.234375 2.769531 -0.21875 1.9375 -1.125 C 1.101562 -2.03125 0.6875 -3.335938 0.6875 -5.046875 L 0.6875 -6.328125 L 3.8125 -6.328125 L 3.8125 -4.828125 C 3.8125 -4.066406 3.960938 -3.535156 4.265625 -3.234375 C 4.578125 -2.941406 4.992188 -2.796875 5.515625 -2.796875 C 6.035156 -2.796875 6.453125 -2.941406 6.765625 -3.234375 C 7.078125 -3.535156 7.234375 -4.066406 7.234375 -4.828125 C 7.234375 -5.546875 7.070312 -6.179688 6.75 -6.734375 C 6.425781 -7.285156 6.023438 -7.804688 5.546875 -8.296875 C 5.066406 -8.785156 4.550781 -9.273438 4 -9.765625 C 3.457031 -10.253906 2.941406 -10.785156 2.453125 -11.359375 C 1.972656 -11.941406 1.570312 -12.601562 1.25 -13.34375 C 0.9375 -14.082031 0.78125 -14.953125 0.78125 -15.953125 Z M 0.78125 -15.953125 "/></g></g></g><g fill="#ffffff" fill-opacity="1"><g transform="translate(129.449632, 71.102871)"><g><path d="M 0.234375 -21 L 10.4375 -21 L 10.4375 -18 L 6.984375 -18 L 6.984375 0 L 3.6875 0 L 3.6875 -18 L 0.234375 -18 Z M 0.234375 -21 "/></g></g></g><g fill="#ffffff" fill-opacity="1"><g transform="translate(140.125481, 71.102871)"><g><path d="M 11.875 0 L 8.546875 0 L 7.984375 -3.8125 L 3.9375 -3.8125 L 3.359375 0 L 0.328125 0 L 3.6875 -21 L 8.515625 -21 Z M 4.34375 -6.65625 L 7.53125 -6.65625 L 5.9375 -17.28125 Z M 4.34375 -6.65625 "/></g></g></g><g fill="#ffffff" fill-opacity="1"><g transform="translate(152.330742, 71.102871)"><g><path d="M 8.09375 0 C 8.0625 -0.132812 8.023438 -0.257812 7.984375 -0.375 C 7.941406 -0.5 7.90625 -0.648438 7.875 -0.828125 C 7.84375 -1.015625 7.820312 -1.25 7.8125 -1.53125 C 7.800781 -1.8125 7.796875 -2.160156 7.796875 -2.578125 L 7.796875 -5.875 C 7.796875 -6.851562 7.625 -7.539062 7.28125 -7.9375 C 6.945312 -8.34375 6.398438 -8.546875 5.640625 -8.546875 L 4.5 -8.546875 L 4.5 0 L 1.203125 0 L 1.203125 -21 L 6.1875 -21 C 7.90625 -21 9.144531 -20.597656 9.90625 -19.796875 C 10.675781 -18.992188 11.0625 -17.785156 11.0625 -16.171875 L 11.0625 -14.515625 C 11.0625 -12.359375 10.34375 -10.941406 8.90625 -10.265625 C 9.75 -9.921875 10.320312 -9.363281 10.625 -8.59375 C 10.9375 -7.820312 11.09375 -6.890625 11.09375 -5.796875 L 11.09375 -2.546875 C 11.09375 -2.023438 11.113281 -1.566406 11.15625 -1.171875 C 11.195312 -0.785156 11.296875 -0.394531 11.453125 0 Z M 4.5 -18 L 4.5 -11.546875 L 5.796875 -11.546875 C 6.410156 -11.546875 6.890625 -11.707031 7.234375 -12.03125 C 7.585938 -12.351562 7.765625 -12.929688 7.765625 -13.765625 L 7.765625 -15.84375 C 7.765625 -16.601562 7.628906 -17.148438 7.359375 -17.484375 C 7.085938 -17.828125 6.664062 -18 6.09375 -18 Z M 4.5 -18 "/></g></g></g><g fill="#ffffff" fill-opacity="1"><g transform="translate(164.386062, 71.102871)"><g><path d="M 1.203125 -21 L 4.5 -21 L 4.5 -3 L 9.9375 -3 L 9.9375 0 L 1.203125 0 Z M 1.203125 -21 "/></g></g></g><g fill="#ffffff" fill-opacity="1"><g transform="translate(174.552111, 71.102871)"><g><path d="M 1.203125 -21 L 4.5 -21 L 4.5 0 L 1.203125 0 Z M 1.203125 -21 "/></g></g></g><g fill="#ffffff" fill-opacity="1"><g transform="translate(180.249895, 71.102871)"><g><path d="M 6.15625 -11.703125 L 10.765625 -11.703125 L 10.765625 -5.046875 C 10.765625 -3.335938 10.347656 -2.03125 9.515625 -1.125 C 8.691406 -0.21875 7.46875 0.234375 5.84375 0.234375 C 4.226562 0.234375 3.003906 -0.21875 2.171875 -1.125 C 1.347656 -2.03125 0.9375 -3.335938 0.9375 -5.046875 L 0.9375 -15.953125 C 0.9375 -17.660156 1.347656 -18.96875 2.171875 -19.875 C 3.003906 -20.78125 4.226562 -21.234375 5.84375 -21.234375 C 7.46875 -21.234375 8.691406 -20.78125 9.515625 -19.875 C 10.347656 -18.96875 10.765625 -17.660156 10.765625 -15.953125 L 10.765625 -13.921875 L 7.65625 -13.921875 L 7.65625 -16.171875 C 7.65625 -16.929688 7.5 -17.460938 7.1875 -17.765625 C 6.875 -18.078125 6.457031 -18.234375 5.9375 -18.234375 C 5.414062 -18.234375 5 -18.078125 4.6875 -17.765625 C 4.382812 -17.460938 4.234375 -16.929688 4.234375 -16.171875 L 4.234375 -4.828125 C 4.234375 -4.066406 4.382812 -3.535156 4.6875 -3.234375 C 5 -2.941406 5.414062 -2.796875 5.9375 -2.796875 C 6.457031 -2.796875 6.875 -2.941406 7.1875 -3.234375 C 7.5 -3.535156 7.65625 -4.066406 7.65625 -4.828125 L 7.65625 -8.703125 L 6.15625 -8.703125 Z M 6.15625 -11.703125 "/></g></g></g><g fill="#ffffff" fill-opacity="1"><g transform="translate(191.945356, 71.102871)"><g><path d="M 4.5 0 L 1.203125 0 L 1.203125 -21 L 4.5 -21 L 4.5 -12 L 8.25 -12 L 8.25 -21 L 11.609375 -21 L 11.609375 0 L 8.25 0 L 8.25 -9 L 4.5 -9 Z M 4.5 0 "/></g></g></g><g fill="#ffffff" fill-opacity="1"><g transform="translate(204.750378, 71.102871)"><g><path d="M 0.234375 -21 L 10.4375 -21 L 10.4375 -18 L 6.984375 -18 L 6.984375 0 L 3.6875 0 L 3.6875 -18 L 0.234375 -18 Z M 0.234375 -21 "/></g></g></g><g fill="#ffffff" fill-opacity="1"><g transform="translate(215.429294, 71.102871)"><g/></g></g><g fill="#ffffff" fill-opacity="1"><g transform="translate(118.233988, 97.352869)"><g><path d="M 6.1875 -21 C 7.90625 -21 9.144531 -20.597656 9.90625 -19.796875 C 10.675781 -18.992188 11.0625 -17.785156 11.0625 -16.171875 L 11.0625 -15.421875 C 11.0625 -14.335938 10.890625 -13.445312 10.546875 -12.75 C 10.210938 -12.050781 9.675781 -11.53125 8.9375 -11.1875 C 9.84375 -10.851562 10.476562 -10.300781 10.84375 -9.53125 C 11.21875 -8.757812 11.40625 -7.8125 11.40625 -6.6875 L 11.40625 -4.984375 C 11.40625 -3.359375 10.984375 -2.117188 10.140625 -1.265625 C 9.296875 -0.421875 8.046875 0 6.390625 0 L 1.203125 0 L 1.203125 -21 Z M 4.5 -9.453125 L 4.5 -3 L 6.390625 -3 C 6.953125 -3 7.375 -3.148438 7.65625 -3.453125 C 7.945312 -3.753906 8.09375 -4.289062 8.09375 -5.0625 L 8.09375 -6.90625 C 8.09375 -7.882812 7.925781 -8.550781 7.59375 -8.90625 C 7.269531 -9.269531 6.726562 -9.453125 5.96875 -9.453125 Z M 4.5 -18 L 4.5 -12.453125 L 5.796875 -12.453125 C 6.410156 -12.453125 6.890625 -12.609375 7.234375 -12.921875 C 7.585938 -13.242188 7.765625 -13.828125 7.765625 -14.671875 L 7.765625 -15.84375 C 7.765625 -16.601562 7.628906 -17.148438 7.359375 -17.484375 C 7.085938 -17.828125 6.664062 -18 6.09375 -18 Z M 4.5 -18 "/></g></g></g><g fill="#ffffff" fill-opacity="1"><g transform="translate(130.409253, 97.352869)"><g><path d="M 4.34375 -21 L 4.34375 -4.796875 C 4.34375 -4.035156 4.5 -3.503906 4.8125 -3.203125 C 5.125 -2.910156 5.539062 -2.765625 6.0625 -2.765625 C 6.582031 -2.765625 6.992188 -2.910156 7.296875 -3.203125 C 7.609375 -3.503906 7.765625 -4.035156 7.765625 -4.796875 L 7.765625 -21 L 10.890625 -21 L 10.890625 -5.015625 C 10.890625 -3.304688 10.472656 -2 9.640625 -1.09375 C 8.816406 -0.1875 7.59375 0.265625 5.96875 0.265625 C 4.351562 0.265625 3.128906 -0.1875 2.296875 -1.09375 C 1.460938 -2 1.046875 -3.304688 1.046875 -5.015625 L 1.046875 -21 Z M 4.34375 -21 "/></g></g></g><g fill="#ffffff" fill-opacity="1"><g transform="translate(142.344616, 97.352869)"><g><path d="M 1.203125 -21 L 4.5 -21 L 4.5 0 L 1.203125 0 Z M 1.203125 -21 "/></g></g></g><g fill="#ffffff" fill-opacity="1"><g transform="translate(148.042401, 97.352869)"><g><path d="M 1.203125 -21 L 4.5 -21 L 4.5 -3 L 9.9375 -3 L 9.9375 0 L 1.203125 0 Z M 1.203125 -21 "/></g></g></g><g fill="#ffffff" fill-opacity="1"><g transform="translate(158.20845, 97.352869)"><g><path d="M 1.203125 -21 L 6.421875 -21 C 8.078125 -21 9.3125 -20.554688 10.125 -19.671875 C 10.9375 -18.796875 11.34375 -17.507812 11.34375 -15.8125 L 11.34375 -5.1875 C 11.34375 -3.488281 10.9375 -2.195312 10.125 -1.3125 C 9.3125 -0.4375 8.078125 0 6.421875 0 L 1.203125 0 Z M 4.5 -18 L 4.5 -3 L 6.359375 -3 C 6.878906 -3 7.289062 -3.148438 7.59375 -3.453125 C 7.894531 -3.753906 8.046875 -4.285156 8.046875 -5.046875 L 8.046875 -15.953125 C 8.046875 -16.710938 7.894531 -17.242188 7.59375 -17.546875 C 7.289062 -17.847656 6.878906 -18 6.359375 -18 Z M 4.5 -18 "/></g></g></g><g fill="#ffffff" fill-opacity="1"><g transform="translate(170.443694, 97.352869)"><g><path d="M 1.203125 -21 L 4.5 -21 L 4.5 0 L 1.203125 0 Z M 1.203125 -21 "/></g></g></g><g fill="#ffffff" fill-opacity="1"><g transform="translate(176.141478, 97.352869)"><g><path d="M 4.140625 -15.203125 L 4.140625 0 L 1.171875 0 L 1.171875 -21 L 5.3125 -21 L 8.703125 -8.4375 L 8.703125 -21 L 11.640625 -21 L 11.640625 0 L 8.25 0 Z M 4.140625 -15.203125 "/></g></g></g><g fill="#ffffff" fill-opacity="1"><g transform="translate(188.9465, 97.352869)"><g><path d="M 6.15625 -11.703125 L 10.765625 -11.703125 L 10.765625 -5.046875 C 10.765625 -3.335938 10.347656 -2.03125 9.515625 -1.125 C 8.691406 -0.21875 7.46875 0.234375 5.84375 0.234375 C 4.226562 0.234375 3.003906 -0.21875 2.171875 -1.125 C 1.347656 -2.03125 0.9375 -3.335938 0.9375 -5.046875 L 0.9375 -15.953125 C 0.9375 -17.660156 1.347656 -18.96875 2.171875 -19.875 C 3.003906 -20.78125 4.226562 -21.234375 5.84375 -21.234375 C 7.46875 -21.234375 8.691406 -20.78125 9.515625 -19.875 C 10.347656 -18.96875 10.765625 -17.660156 10.765625 -15.953125 L 10.765625 -13.921875 L 7.65625 -13.921875 L 7.65625 -16.171875 C 7.65625 -16.929688 7.5 -17.460938 7.1875 -17.765625 C 6.875 -18.078125 6.457031 -18.234375 5.9375 -18.234375 C 5.414062 -18.234375 5 -18.078125 4.6875 -17.765625 C 4.382812 -17.460938 4.234375 -16.929688 4.234375 -16.171875 L 4.234375 -4.828125 C 4.234375 -4.066406 4.382812 -3.535156 4.6875 -3.234375 C 5 -2.941406 5.414062 -2.796875 5.9375 -2.796875 C 6.457031 -2.796875 6.875 -2.941406 7.1875 -3.234375 C 7.5 -3.535156 7.65625 -4.066406 7.65625 -4.828125 L 7.65625 -8.703125 L 6.15625 -8.703125 Z M 6.15625 -11.703125 "/></g></g></g><g fill="#ffffff" fill-opacity="1"><g transform="translate(200.641961, 97.352869)"><g/></g></g><g fill="#ffffff" fill-opacity="1"><g transform="translate(205.29015, 97.352869)"><g><path d="M 8.1875 -6.09375 L 10.4375 -21 L 15.03125 -21 L 15.03125 0 L 11.90625 0 L 11.90625 -15.0625 L 9.625 0 L 6.515625 0 L 4.046875 -14.84375 L 4.046875 0 L 1.171875 0 L 1.171875 -21 L 5.765625 -21 Z M 8.1875 -6.09375 "/></g></g></g><g fill="#ffffff" fill-opacity="1"><g transform="translate(221.513843, 97.352869)"><g><path d="M 11.875 0 L 8.546875 0 L 7.984375 -3.8125 L 3.9375 -3.8125 L 3.359375 0 L 0.328125 0 L 3.6875 -21 L 8.515625 -21 Z M 4.34375 -6.65625 L 7.53125 -6.65625 L 5.9375 -17.28125 Z M 4.34375 -6.65625 "/></g></g></g><g fill="#ffffff" fill-opacity="1"><g transform="translate(233.719103, 97.352869)"><g><path d="M 1.203125 -21 L 4.5 -21 L 4.5 0 L 1.203125 0 Z M 1.203125 -21 "/></g></g></g><g fill="#ffffff" fill-opacity="1"><g transform="translate(239.416887, 97.352869)"><g><path d="M 4.140625 -15.203125 L 4.140625 0 L 1.171875 0 L 1.171875 -21 L 5.3125 -21 L 8.703125 -8.4375 L 8.703125 -21 L 11.640625 -21 L 11.640625 0 L 8.25 0 Z M 4.140625 -15.203125 "/></g></g></g><g fill="#ffffff" fill-opacity="1"><g transform="translate(252.221909, 97.352869)"><g><path d="M 0.234375 -21 L 10.4375 -21 L 10.4375 -18 L 6.984375 -18 L 6.984375 0 L 3.6875 0 L 3.6875 -18 L 0.234375 -18 Z M 0.234375 -21 "/></g></g></g><g fill="#ffffff" fill-opacity="1"><g transform="translate(262.897759, 97.352869)"><g><path d="M 4.5 -12.15625 L 9.03125 -12.15625 L 9.03125 -9.15625 L 4.5 -9.15625 L 4.5 -3 L 10.203125 -3 L 10.203125 0 L 1.203125 0 L 1.203125 -21 L 10.203125 -21 L 10.203125 -18 L 4.5 -18 Z M 4.5 -12.15625 "/></g></g></g><g fill="#ffffff" fill-opacity="1"><g transform="translate(273.933467, 97.352869)"><g><path d="M 4.140625 -15.203125 L 4.140625 0 L 1.171875 0 L 1.171875 -21 L 5.3125 -21 L 8.703125 -8.4375 L 8.703125 -21 L 11.640625 -21 L 11.640625 0 L 8.25 0 Z M 4.140625 -15.203125 "/></g></g></g><g fill="#ffffff" fill-opacity="1"><g transform="translate(286.738489, 97.352869)"><g><path d="M 11.875 0 L 8.546875 0 L 7.984375 -3.8125 L 3.9375 -3.8125 L 3.359375 0 L 0.328125 0 L 3.6875 -21 L 8.515625 -21 Z M 4.34375 -6.65625 L 7.53125 -6.65625 L 5.9375 -17.28125 Z M 4.34375 -6.65625 "/></g></g></g><g fill="#ffffff" fill-opacity="1"><g transform="translate(298.94375, 97.352869)"><g><path d="M 4.140625 -15.203125 L 4.140625 0 L 1.171875 0 L 1.171875 -21 L 5.3125 -21 L 8.703125 -8.4375 L 8.703125 -21 L 11.640625 -21 L 11.640625 0 L 8.25 0 Z M 4.140625 -15.203125 "/></g></g></g><g fill="#ffffff" fill-opacity="1"><g transform="translate(311.748761, 97.352869)"><g><path d="M 10.765625 -7.828125 L 10.765625 -5.046875 C 10.765625 -3.335938 10.347656 -2.03125 9.515625 -1.125 C 8.691406 -0.21875 7.46875 0.234375 5.84375 0.234375 C 4.226562 0.234375 3.003906 -0.21875 2.171875 -1.125 C 1.347656 -2.03125 0.9375 -3.335938 0.9375 -5.046875 L 0.9375 -15.953125 C 0.9375 -17.660156 1.347656 -18.96875 2.171875 -19.875 C 3.003906 -20.78125 4.226562 -21.234375 5.84375 -21.234375 C 7.46875 -21.234375 8.691406 -20.78125 9.515625 -19.875 C 10.347656 -18.96875 10.765625 -17.660156 10.765625 -15.953125 L 10.765625 -13.921875 L 7.65625 -13.921875 L 7.65625 -16.171875 C 7.65625 -16.929688 7.5 -17.460938 7.1875 -17.765625 C 6.875 -18.078125 6.457031 -18.234375 5.9375 -18.234375 C 5.414062 -18.234375 5 -18.078125 4.6875 -17.765625 C 4.382812 -17.460938 4.234375 -16.929688 4.234375 -16.171875 L 4.234375 -4.828125 C 4.234375 -4.066406 4.382812 -3.535156 4.6875 -3.234375 C 5 -2.941406 5.414062 -2.796875 5.9375 -2.796875 C 6.457031 -2.796875 6.875 -2.941406 7.1875 -3.234375 C 7.5 -3.535156 7.65625 -4.066406 7.65625 -4.828125 L 7.65625 -7.828125 Z M 10.765625 -7.828125 "/></g></g></g><g fill="#ffffff" fill-opacity="1"><g transform="translate(323.324276, 97.352869)"><g><path d="M 4.5 -12.15625 L 9.03125 -12.15625 L 9.03125 -9.15625 L 4.5 -9.15625 L 4.5 -3 L 10.203125 -3 L 10.203125 0 L 1.203125 0 L 1.203125 -21 L 10.203125 -21 L 10.203125 -18 L 4.5 -18 Z M 4.5 -12.15625 "/></g></g></g><g fill="#29abe2" fill-opacity="1"><g transform="translate(62.613326, 121.286373)"><g><path d="M 2.5625 -9.09375 C 3.269531 -9.09375 3.773438 -8.925781 4.078125 -8.59375 C 4.378906 -8.257812 4.53125 -7.753906 4.53125 -7.078125 L 4.53125 -6.65625 C 4.53125 -6.164062 4.453125 -5.769531 4.296875 -5.46875 C 4.140625 -5.175781 3.863281 -4.96875 3.46875 -4.84375 C 3.914062 -4.726562 4.226562 -4.5 4.40625 -4.15625 C 4.59375 -3.820312 4.6875 -3.40625 4.6875 -2.90625 L 4.6875 -2.125 C 4.6875 -1.445312 4.515625 -0.921875 4.171875 -0.546875 C 3.835938 -0.179688 3.316406 0 2.609375 0 L 0.515625 0 L 0.515625 -9.09375 Z M 2.3125 -5.234375 C 2.71875 -5.234375 3.019531 -5.316406 3.21875 -5.484375 C 3.425781 -5.648438 3.53125 -5.972656 3.53125 -6.453125 L 3.53125 -6.984375 C 3.53125 -7.390625 3.453125 -7.6875 3.296875 -7.875 C 3.148438 -8.070312 2.894531 -8.171875 2.53125 -8.171875 L 1.53125 -8.171875 L 1.53125 -5.234375 Z M 2.609375 -0.921875 C 3.328125 -0.921875 3.6875 -1.332031 3.6875 -2.15625 L 3.6875 -2.96875 C 3.6875 -3.476562 3.582031 -3.828125 3.375 -4.015625 C 3.175781 -4.210938 2.859375 -4.3125 2.421875 -4.3125 L 1.53125 -4.3125 L 1.53125 -0.921875 Z M 2.609375 -0.921875 "/></g></g></g><g fill="#29abe2" fill-opacity="1"><g transform="translate(73.167787, 121.286373)"><g><path d="M 3.75 -5.0625 L 3.75 -4.15625 L 1.53125 -4.15625 L 1.53125 -0.921875 L 4.265625 -0.921875 L 4.265625 0 L 0.515625 0 L 0.515625 -9.09375 L 4.265625 -9.09375 L 4.265625 -8.171875 L 1.53125 -8.171875 L 1.53125 -5.0625 Z M 3.75 -5.0625 "/></g></g></g><g fill="#29abe2" fill-opacity="1"><g transform="translate(83.30637, 121.286373)"><g><path d="M 2.484375 -9.1875 C 3.179688 -9.1875 3.695312 -8.976562 4.03125 -8.5625 C 4.363281 -8.144531 4.53125 -7.59375 4.53125 -6.90625 L 4.53125 -6.078125 L 3.578125 -6.078125 L 3.578125 -6.953125 C 3.578125 -7.367188 3.488281 -7.691406 3.3125 -7.921875 C 3.144531 -8.148438 2.878906 -8.265625 2.515625 -8.265625 C 2.148438 -8.265625 1.878906 -8.148438 1.703125 -7.921875 C 1.523438 -7.691406 1.4375 -7.367188 1.4375 -6.953125 L 1.4375 -2.140625 C 1.4375 -1.722656 1.523438 -1.398438 1.703125 -1.171875 C 1.878906 -0.941406 2.148438 -0.828125 2.515625 -0.828125 C 2.878906 -0.828125 3.144531 -0.941406 3.3125 -1.171875 C 3.488281 -1.398438 3.578125 -1.722656 3.578125 -2.140625 L 3.578125 -3.328125 L 4.53125 -3.328125 L 4.53125 -2.203125 C 4.53125 -1.503906 4.363281 -0.945312 4.03125 -0.53125 C 3.695312 -0.113281 3.179688 0.09375 2.484375 0.09375 C 1.785156 0.09375 1.269531 -0.113281 0.9375 -0.53125 C 0.601562 -0.945312 0.4375 -1.503906 0.4375 -2.203125 L 0.4375 -6.90625 C 0.4375 -7.25 0.476562 -7.5625 0.5625 -7.84375 C 0.644531 -8.125 0.769531 -8.363281 0.9375 -8.5625 C 1.113281 -8.757812 1.328125 -8.910156 1.578125 -9.015625 C 1.835938 -9.128906 2.140625 -9.1875 2.484375 -9.1875 Z M 2.484375 -9.1875 "/></g></g></g><g fill="#29abe2" fill-opacity="1"><g transform="translate(93.704882, 121.286373)"><g><path d="M 1.546875 -1.828125 L 1.203125 0 L 0.265625 0 L 2 -9.09375 L 3.46875 -9.09375 L 5.21875 0 L 4.203125 0 L 3.84375 -1.828125 Z M 1.671875 -2.703125 L 3.703125 -2.703125 L 2.671875 -7.953125 Z M 1.671875 -2.703125 "/></g></g></g><g fill="#29abe2" fill-opacity="1"><g transform="translate(104.649221, 121.286373)"><g><path d="M 1.484375 -2.140625 C 1.484375 -1.722656 1.566406 -1.398438 1.734375 -1.171875 C 1.898438 -0.941406 2.171875 -0.828125 2.546875 -0.828125 C 2.910156 -0.828125 3.175781 -0.941406 3.34375 -1.171875 C 3.507812 -1.398438 3.59375 -1.722656 3.59375 -2.140625 L 3.59375 -9.09375 L 4.546875 -9.09375 L 4.546875 -2.203125 C 4.546875 -1.503906 4.378906 -0.941406 4.046875 -0.515625 C 3.722656 -0.0976562 3.210938 0.109375 2.515625 0.109375 C 1.816406 0.109375 1.300781 -0.0976562 0.96875 -0.515625 C 0.644531 -0.941406 0.484375 -1.503906 0.484375 -2.203125 L 0.484375 -9.09375 L 1.484375 -9.09375 Z M 1.484375 -2.140625 "/></g></g></g><g fill="#29abe2" fill-opacity="1"><g transform="translate(115.1387, 121.286373)"><g><path d="M 2.4375 -9.1875 C 3.125 -9.1875 3.628906 -8.976562 3.953125 -8.5625 C 4.285156 -8.15625 4.453125 -7.609375 4.453125 -6.921875 L 4.453125 -6.671875 L 3.5 -6.671875 L 3.5 -6.96875 C 3.5 -7.382812 3.414062 -7.703125 3.25 -7.921875 C 3.082031 -8.148438 2.816406 -8.265625 2.453125 -8.265625 C 2.085938 -8.265625 1.820312 -8.148438 1.65625 -7.921875 C 1.5 -7.703125 1.421875 -7.390625 1.421875 -6.984375 C 1.421875 -6.640625 1.492188 -6.34375 1.640625 -6.09375 C 1.796875 -5.84375 1.984375 -5.609375 2.203125 -5.390625 C 2.429688 -5.179688 2.675781 -4.972656 2.9375 -4.765625 C 3.207031 -4.566406 3.453125 -4.347656 3.671875 -4.109375 C 3.898438 -3.867188 4.085938 -3.59375 4.234375 -3.28125 C 4.390625 -2.976562 4.46875 -2.613281 4.46875 -2.1875 C 4.46875 -1.488281 4.300781 -0.929688 3.96875 -0.515625 C 3.632812 -0.109375 3.117188 0.09375 2.421875 0.09375 C 1.710938 0.09375 1.191406 -0.109375 0.859375 -0.515625 C 0.535156 -0.929688 0.375 -1.488281 0.375 -2.1875 L 0.375 -2.703125 L 1.328125 -2.703125 L 1.328125 -2.125 C 1.328125 -1.71875 1.410156 -1.398438 1.578125 -1.171875 C 1.753906 -0.941406 2.023438 -0.828125 2.390625 -0.828125 C 2.753906 -0.828125 3.019531 -0.941406 3.1875 -1.171875 C 3.363281 -1.398438 3.453125 -1.71875 3.453125 -2.125 C 3.453125 -2.46875 3.375 -2.757812 3.21875 -3 C 3.070312 -3.25 2.882812 -3.476562 2.65625 -3.6875 C 2.4375 -3.90625 2.195312 -4.113281 1.9375 -4.3125 C 1.675781 -4.519531 1.429688 -4.742188 1.203125 -4.984375 C 0.984375 -5.234375 0.796875 -5.507812 0.640625 -5.8125 C 0.492188 -6.125 0.421875 -6.492188 0.421875 -6.921875 C 0.421875 -7.617188 0.582031 -8.171875 0.90625 -8.578125 C 1.238281 -8.984375 1.75 -9.1875 2.4375 -9.1875 Z M 2.4375 -9.1875 "/></g></g></g><g fill="#29abe2" fill-opacity="1"><g transform="translate(125.433244, 121.286373)"><g><path d="M 3.75 -5.0625 L 3.75 -4.15625 L 1.53125 -4.15625 L 1.53125 -0.921875 L 4.265625 -0.921875 L 4.265625 0 L 0.515625 0 L 0.515625 -9.09375 L 4.265625 -9.09375 L 4.265625 -8.171875 L 1.53125 -8.171875 L 1.53125 -5.0625 Z M 3.75 -5.0625 "/></g></g></g><g fill="#29abe2" fill-opacity="1"><g transform="translate(135.574259, 121.286373)"><g/></g></g><g fill="#29abe2" fill-opacity="1"><g transform="translate(143.048658, 121.286373)"><g/></g></g><g fill="#29abe2" fill-opacity="1"><g transform="translate(150.527383, 121.286373)"><g><path d="M 2.125 -3.265625 L 0.203125 -9.09375 L 1.265625 -9.09375 L 2.671875 -4.625 L 4.109375 -9.09375 L 5.0625 -9.09375 L 3.140625 -3.265625 L 3.140625 0 L 2.125 0 Z M 2.125 -3.265625 "/></g></g></g><g fill="#29abe2" fill-opacity="1"><g transform="translate(161.263782, 121.286373)"><g><path d="M 0.4375 -6.90625 C 0.4375 -7.601562 0.609375 -8.15625 0.953125 -8.5625 C 1.296875 -8.976562 1.816406 -9.1875 2.515625 -9.1875 C 3.222656 -9.1875 3.75 -8.976562 4.09375 -8.5625 C 4.4375 -8.15625 4.609375 -7.601562 4.609375 -6.90625 L 4.609375 -2.203125 C 4.609375 -1.503906 4.4375 -0.945312 4.09375 -0.53125 C 3.75 -0.113281 3.222656 0.09375 2.515625 0.09375 C 1.816406 0.09375 1.296875 -0.113281 0.953125 -0.53125 C 0.609375 -0.945312 0.4375 -1.503906 0.4375 -2.203125 Z M 1.4375 -2.140625 C 1.4375 -1.722656 1.523438 -1.398438 1.703125 -1.171875 C 1.878906 -0.941406 2.148438 -0.828125 2.515625 -0.828125 C 2.890625 -0.828125 3.160156 -0.941406 3.328125 -1.171875 C 3.503906 -1.398438 3.59375 -1.722656 3.59375 -2.140625 L 3.59375 -6.953125 C 3.59375 -7.367188 3.503906 -7.691406 3.328125 -7.921875 C 3.160156 -8.148438 2.890625 -8.265625 2.515625 -8.265625 C 2.148438 -8.265625 1.878906 -8.148438 1.703125 -7.921875 C 1.523438 -7.691406 1.4375 -7.367188 1.4375 -6.953125 Z M 1.4375 -2.140625 "/></g></g></g><g fill="#29abe2" fill-opacity="1"><g transform="translate(171.779253, 121.286373)"><g><path d="M 1.484375 -2.140625 C 1.484375 -1.722656 1.566406 -1.398438 1.734375 -1.171875 C 1.898438 -0.941406 2.171875 -0.828125 2.546875 -0.828125 C 2.910156 -0.828125 3.175781 -0.941406 3.34375 -1.171875 C 3.507812 -1.398438 3.59375 -1.722656 3.59375 -2.140625 L 3.59375 -9.09375 L 4.546875 -9.09375 L 4.546875 -2.203125 C 4.546875 -1.503906 4.378906 -0.941406 4.046875 -0.515625 C 3.722656 -0.0976562 3.210938 0.109375 2.515625 0.109375 C 1.816406 0.109375 1.300781 -0.0976562 0.96875 -0.515625 C 0.644531 -0.941406 0.484375 -1.503906 0.484375 -2.203125 L 0.484375 -9.09375 L 1.484375 -9.09375 Z M 1.484375 -2.140625 "/></g></g></g><g fill="#29abe2" fill-opacity="1"><g transform="translate(182.268734, 121.286373)"><g><path d="M 2.546875 -9.09375 C 3.265625 -9.09375 3.78125 -8.914062 4.09375 -8.5625 C 4.414062 -8.207031 4.578125 -7.691406 4.578125 -7.015625 L 4.578125 -6.28125 C 4.578125 -5.78125 4.484375 -5.375 4.296875 -5.0625 C 4.117188 -4.75 3.832031 -4.53125 3.4375 -4.40625 C 3.851562 -4.28125 4.148438 -4.054688 4.328125 -3.734375 C 4.503906 -3.410156 4.59375 -3.003906 4.59375 -2.515625 L 4.59375 -1.09375 C 4.59375 -0.894531 4.597656 -0.703125 4.609375 -0.515625 C 4.628906 -0.328125 4.679688 -0.15625 4.765625 0 L 3.75 0 C 3.6875 -0.125 3.640625 -0.265625 3.609375 -0.421875 C 3.585938 -0.578125 3.578125 -0.804688 3.578125 -1.109375 L 3.578125 -2.53125 C 3.578125 -3.039062 3.460938 -3.394531 3.234375 -3.59375 C 3.003906 -3.789062 2.675781 -3.890625 2.25 -3.890625 L 1.53125 -3.890625 L 1.53125 0 L 0.515625 0 L 0.515625 -9.09375 Z M 2.28125 -4.8125 C 2.695312 -4.8125 3.015625 -4.894531 3.234375 -5.0625 C 3.460938 -5.226562 3.578125 -5.5625 3.578125 -6.0625 L 3.578125 -6.921875 C 3.578125 -7.335938 3.492188 -7.648438 3.328125 -7.859375 C 3.171875 -8.066406 2.898438 -8.171875 2.515625 -8.171875 L 1.53125 -8.171875 L 1.53125 -4.8125 Z M 2.28125 -4.8125 "/></g></g></g><g fill="#29abe2" fill-opacity="1"><g transform="translate(192.855505, 121.286373)"><g/></g></g><g fill="#29abe2" fill-opacity="1"><g transform="translate(200.329904, 121.286373)"><g/></g></g><g fill="#29abe2" fill-opacity="1"><g transform="translate(207.808629, 121.286373)"><g><path d="M 1.28125 -9.09375 L 2.765625 -1.1875 L 4.234375 -9.09375 L 5.171875 -9.09375 L 3.46875 0 L 1.96875 0 L 0.265625 -9.09375 Z M 1.28125 -9.09375 "/></g></g></g><g fill="#29abe2" fill-opacity="1"><g transform="translate(218.700989, 121.286373)"><g><path d="M 1.53125 -9.09375 L 1.53125 0 L 0.515625 0 L 0.515625 -9.09375 Z M 1.53125 -9.09375 "/></g></g></g><g fill="#29abe2" fill-opacity="1"><g transform="translate(226.214377, 121.286373)"><g><path d="M 3.75 -5.0625 L 3.75 -4.15625 L 1.53125 -4.15625 L 1.53125 -0.921875 L 4.265625 -0.921875 L 4.265625 0 L 0.515625 0 L 0.515625 -9.09375 L 4.265625 -9.09375 L 4.265625 -8.171875 L 1.53125 -8.171875 L 1.53125 -5.0625 Z M 3.75 -5.0625 "/></g></g></g><g fill="#29abe2" fill-opacity="1"><g transform="translate(236.352959, 121.286373)"><g><path d="M 2.9375 0 L 1.546875 0 L 0.296875 -9.09375 L 1.28125 -9.09375 L 2.359375 -1.359375 L 3.359375 -9.09375 L 4.375 -9.09375 L 5.375 -1.34375 L 6.390625 -9.09375 L 7.28125 -9.09375 L 6.046875 0 L 4.703125 0 L 3.828125 -6.171875 Z M 2.9375 0 "/></g></g></g><g fill="#29abe2" fill-opacity="1"><g transform="translate(249.398474, 121.286373)"><g/></g></g><g fill="#29abe2" fill-opacity="1"><g transform="translate(256.872873, 121.286373)"><g/></g></g><g fill="#29abe2" fill-opacity="1"><g transform="translate(264.351598, 121.286373)"><g><path d="M 3.875 -0.015625 L 2.90625 -0.015625 L 1.390625 -7.25 L 1.390625 0 L 0.5 0 L 0.5 -9.09375 L 1.921875 -9.09375 L 3.421875 -1.828125 L 4.859375 -9.09375 L 6.28125 -9.09375 L 6.28125 0 L 5.3125 0 L 5.3125 -7.3125 Z M 3.875 -0.015625 "/></g></g></g><g fill="#29abe2" fill-opacity="1"><g transform="translate(276.60854, 121.286373)"><g><path d="M 1.546875 -1.828125 L 1.203125 0 L 0.265625 0 L 2 -9.09375 L 3.46875 -9.09375 L 5.21875 0 L 4.203125 0 L 3.84375 -1.828125 Z M 1.671875 -2.703125 L 3.703125 -2.703125 L 2.671875 -7.953125 Z M 1.671875 -2.703125 "/></g></g></g><g fill="#29abe2" fill-opacity="1"><g transform="translate(287.552879, 121.286373)"><g><path d="M 1.84375 0 L 1.84375 -8.171875 L 0.171875 -8.171875 L 0.171875 -9.09375 L 4.53125 -9.09375 L 4.53125 -8.171875 L 2.859375 -8.171875 L 2.859375 0 Z M 1.84375 0 "/></g></g></g><g fill="#29abe2" fill-opacity="1"><g transform="translate(297.730453, 121.286373)"><g><path d="M 1.84375 0 L 1.84375 -8.171875 L 0.171875 -8.171875 L 0.171875 -9.09375 L 4.53125 -9.09375 L 4.53125 -8.171875 L 2.859375 -8.171875 L 2.859375 0 Z M 1.84375 0 "/></g></g></g><g fill="#29abe2" fill-opacity="1"><g transform="translate(307.908026, 121.286373)"><g><path d="M 3.75 -5.0625 L 3.75 -4.15625 L 1.53125 -4.15625 L 1.53125 -0.921875 L 4.265625 -0.921875 L 4.265625 0 L 0.515625 0 L 0.515625 -9.09375 L 4.265625 -9.09375 L 4.265625 -8.171875 L 1.53125 -8.171875 L 1.53125 -5.0625 Z M 3.75 -5.0625 "/></g></g></g><g fill="#29abe2" fill-opacity="1"><g transform="translate(318.04661, 121.286373)"><g><path d="M 2.546875 -9.09375 C 3.265625 -9.09375 3.78125 -8.914062 4.09375 -8.5625 C 4.414062 -8.207031 4.578125 -7.691406 4.578125 -7.015625 L 4.578125 -6.28125 C 4.578125 -5.78125 4.484375 -5.375 4.296875 -5.0625 C 4.117188 -4.75 3.832031 -4.53125 3.4375 -4.40625 C 3.851562 -4.28125 4.148438 -4.054688 4.328125 -3.734375 C 4.503906 -3.410156 4.59375 -3.003906 4.59375 -2.515625 L 4.59375 -1.09375 C 4.59375 -0.894531 4.597656 -0.703125 4.609375 -0.515625 C 4.628906 -0.328125 4.679688 -0.15625 4.765625 0 L 3.75 0 C 3.6875 -0.125 3.640625 -0.265625 3.609375 -0.421875 C 3.585938 -0.578125 3.578125 -0.804688 3.578125 -1.109375 L 3.578125 -2.53125 C 3.578125 -3.039062 3.460938 -3.394531 3.234375 -3.59375 C 3.003906 -3.789062 2.675781 -3.890625 2.25 -3.890625 L 1.53125 -3.890625 L 1.53125 0 L 0.515625 0 L 0.515625 -9.09375 Z M 2.28125 -4.8125 C 2.695312 -4.8125 3.015625 -4.894531 3.234375 -5.0625 C 3.460938 -5.226562 3.578125 -5.5625 3.578125 -6.0625 L 3.578125 -6.921875 C 3.578125 -7.335938 3.492188 -7.648438 3.328125 -7.859375 C 3.171875 -8.066406 2.898438 -8.171875 2.515625 -8.171875 L 1.53125 -8.171875 L 1.53125 -4.8125 Z M 2.28125 -4.8125 "/></g></g></g><g fill="#29abe2" fill-opacity="1"><g transform="translate(328.627061, 121.286373)"><g><path d="M 2.4375 -9.1875 C 3.125 -9.1875 3.628906 -8.976562 3.953125 -8.5625 C 4.285156 -8.15625 4.453125 -7.609375 4.453125 -6.921875 L 4.453125 -6.671875 L 3.5 -6.671875 L 3.5 -6.96875 C 3.5 -7.382812 3.414062 -7.703125 3.25 -7.921875 C 3.082031 -8.148438 2.816406 -8.265625 2.453125 -8.265625 C 2.085938 -8.265625 1.820312 -8.148438 1.65625 -7.921875 C 1.5 -7.703125 1.421875 -7.390625 1.421875 -6.984375 C 1.421875 -6.640625 1.492188 -6.34375 1.640625 -6.09375 C 1.796875 -5.84375 1.984375 -5.609375 2.203125 -5.390625 C 2.429688 -5.179688 2.675781 -4.972656 2.9375 -4.765625 C 3.207031 -4.566406 3.453125 -4.347656 3.671875 -4.109375 C 3.898438 -3.867188 4.085938 -3.59375 4.234375 -3.28125 C 4.390625 -2.976562 4.46875 -2.613281 4.46875 -2.1875 C 4.46875 -1.488281 4.300781 -0.929688 3.96875 -0.515625 C 3.632812 -0.109375 3.117188 0.09375 2.421875 0.09375 C 1.710938 0.09375 1.191406 -0.109375 0.859375 -0.515625 C 0.535156 -0.929688 0.375 -1.488281 0.375 -2.1875 L 0.375 -2.703125 L 1.328125 -2.703125 L 1.328125 -2.125 C 1.328125 -1.71875 1.410156 -1.398438 1.578125 -1.171875 C 1.753906 -0.941406 2.023438 -0.828125 2.390625 -0.828125 C 2.753906 -0.828125 3.019531 -0.941406 3.1875 -1.171875 C 3.363281 -1.398438 3.453125 -1.71875 3.453125 -2.125 C 3.453125 -2.46875 3.375 -2.757812 3.21875 -3 C 3.070312 -3.25 2.882812 -3.476562 2.65625 -3.6875 C 2.4375 -3.90625 2.195312 -4.113281 1.9375 -4.3125 C 1.675781 -4.519531 1.429688 -4.742188 1.203125 -4.984375 C 0.984375 -5.234375 0.796875 -5.507812 0.640625 -5.8125 C 0.492188 -6.125 0.421875 -6.492188 0.421875 -6.921875 C 0.421875 -7.617188 0.582031 -8.171875 0.90625 -8.578125 C 1.238281 -8.984375 1.75 -9.1875 2.4375 -9.1875 Z M 2.4375 -9.1875 "/></g></g></g></svg>